<?xml version="1.0" standalone="no"?>
<!DOCTYPE svg PUBLIC "-//W3C//DTD SVG 20010904//EN"
 "http://www.w3.org/TR/2001/REC-SVG-20010904/DTD/svg10.dtd">
<svg version="1.0" xmlns="http://www.w3.org/2000/svg"
 width="1280.000000pt" height="720.000000pt" viewBox="0 0 1280.000000 720.000000"
 preserveAspectRatio="xMidYMid meet">
<metadata>
Created by potrace 1.15, written by Peter Selinger 2001-2017
</metadata>
<g transform="translate(0.000000,720.000000) scale(0.100000,-0.100000)"
fill="#000000" stroke="none">
<path d="M4985 6918 c-48 -17 -94 -56 -115 -98 -19 -38 -20 -60 -20 -560 0
-500 1 -522 20 -560 24 -47 70 -84 125 -100 29 -8 183 -10 540 -8 l500 3 42
24 c24 14 55 42 70 64 l28 40 0 537 0 537 -28 40 c-15 22 -46 50 -70 64 l-42
24 -510 2 c-341 1 -520 -2 -540 -9z"/>
<path d="M6805 6915 c-51 -18 -110 -81 -124 -131 -15 -54 -15 -995 0 -1049 15
-52 82 -119 134 -134 55 -15 995 -15 1050 0 52 15 119 82 134 134 15 55 15
995 0 1050 -15 52 -82 119 -134 134 -64 18 -1008 14 -1060 -4z"/>
<path d="M10489 6897 c-24 -13 -57 -43 -74 -66 l-30 -43 -3 -521 -2 -522 22
-44 c13 -25 40 -59 61 -75 l39 -31 542 0 542 0 36 24 c19 13 46 40 59 59 l24
36 0 542 0 542 -31 39 c-16 21 -50 48 -74 61 -44 22 -45 22 -556 22 l-511 0
-44 -23z"/>
<path d="M1330 6889 c-56 -25 -77 -44 -101 -91 -18 -35 -19 -67 -19 -558 0
-491 1 -523 19 -558 24 -47 45 -66 101 -91 43 -20 64 -21 535 -21 312 0 504 4
528 11 47 13 102 60 128 110 18 36 19 63 19 549 0 486 -1 513 -19 549 -26 50
-81 97 -128 110 -24 7 -216 11 -528 11 -471 0 -492 -1 -535 -21z"/>
<path d="M3165 6896 c-43 -19 -94 -74 -106 -116 -6 -23 -9 -219 -7 -557 l3
-521 31 -39 c16 -21 50 -48 74 -60 44 -23 45 -23 556 -23 l511 0 44 23 c24 13
58 43 74 66 l30 43 3 521 2 522 -22 44 c-13 25 -40 59 -61 75 l-39 31 -531 2
c-424 2 -538 0 -562 -11z"/>
<path d="M8688 6900 c-47 -14 -88 -44 -116 -84 l-27 -39 0 -537 0 -537 28 -40
c15 -22 46 -50 70 -64 l42 -24 500 -3 c357 -2 511 0 540 8 55 16 101 53 125
100 19 38 20 60 20 560 0 500 -1 522 -20 560 -22 44 -68 82 -119 99 -40 13
-999 14 -1043 1z"/>
<path d="M10545 5276 c-43 -19 -94 -74 -106 -116 -6 -23 -9 -219 -7 -557 l3
-521 31 -39 c16 -21 50 -48 74 -60 44 -23 45 -23 556 -23 l511 0 44 23 c24 13
58 43 74 66 l30 43 3 521 2 522 -22 44 c-13 25 -40 59 -61 75 l-39 31 -531 2
c-424 2 -538 0 -562 -11z"/>
<path d="M8669 5257 c-24 -13 -57 -43 -74 -66 l-30 -43 -3 -521 -2 -522 22
-44 c13 -25 40 -59 61 -75 l39 -31 542 0 542 0 36 24 c19 13 46 40 59 59 l24
36 0 542 0 542 -31 39 c-16 21 -50 48 -74 61 -44 22 -45 22 -556 22 l-511 0
-44 -23z"/>
<path d="M1345 5256 c-43 -19 -94 -74 -106 -116 -6 -23 -9 -219 -7 -557 l3
-521 31 -39 c16 -21 50 -48 74 -60 44 -23 45 -23 556 -23 l511 0 44 23 c24 13
58 43 74 66 l30 43 3 521 2 522 -22 44 c-13 25 -40 59 -61 75 l-39 31 -531 2
c-424 2 -538 0 -562 -11z"/>
<path d="M4965 5258 c-48 -17 -94 -56 -115 -98 -19 -38 -20 -60 -20 -560 0
-500 1 -522 20 -560 24 -47 70 -84 125 -100 29 -8 183 -10 540 -8 l500 3 42
24 c24 14 55 42 70 64 l28 40 0 537 0 537 -28 40 c-15 22 -46 50 -70 64 l-42
24 -510 2 c-341 1 -520 -2 -540 -9z"/>
<path d="M6778 5250 c-45 -24 -82 -72 -98 -125 -8 -29 -10 -183 -8 -540 l3
-500 24 -42 c14 -24 42 -55 64 -70 l40 -28 537 0 537 0 40 28 c22 15 50 46 64
70 l24 42 3 500 c2 357 0 511 -8 540 -16 55 -53 101 -100 125 -38 19 -59 20
-562 20 -499 -1 -525 -2 -560 -20z"/>
<path d="M3205 5238 c-48 -17 -94 -56 -115 -98 -19 -38 -20 -60 -20 -560 0
-500 1 -522 20 -560 24 -47 70 -84 125 -100 29 -8 183 -10 540 -8 l500 3 42
24 c24 14 55 42 70 64 l28 40 0 537 0 537 -28 40 c-15 22 -46 50 -70 64 l-42
24 -510 2 c-341 1 -520 -2 -540 -9z"/>
<path d="M3440 3558 c-24 -13 -58 -40 -74 -61 l-31 -39 0 -542 0 -542 24 -36
c13 -19 40 -46 59 -59 l36 -24 542 0 542 0 39 31 c21 16 48 50 61 75 l22 44
-2 522 -3 521 -30 43 c-16 23 -50 53 -74 66 l-44 23 -511 0 c-511 0 -512 0
-556 -22z"/>
<path d="M6555 3566 c-39 -18 -79 -55 -102 -97 -17 -32 -18 -70 -21 -534 -2
-357 0 -511 8 -540 16 -55 53 -101 100 -125 38 -19 60 -20 560 -20 500 0 522
1 560 20 47 24 84 70 100 125 8 29 10 183 8 540 l-3 500 -24 42 c-14 24 -42
55 -64 70 l-40 28 -526 2 c-423 2 -532 0 -556 -11z"/>
<path d="M11320 3558 c-24 -13 -58 -40 -74 -61 l-31 -39 0 -542 0 -542 24 -36
c13 -19 40 -46 59 -59 l36 -24 542 0 542 0 39 31 c21 16 48 50 61 75 l22 44
-2 522 -3 521 -30 43 c-16 23 -50 53 -74 66 l-44 23 -511 0 c-511 0 -512 0
-556 -22z"/>
<path d="M305 3556 c-43 -19 -94 -74 -106 -116 -6 -23 -9 -219 -7 -557 l3
-521 31 -39 c16 -21 50 -48 74 -60 44 -23 45 -23 556 -23 l511 0 44 23 c24 13
58 43 74 66 l30 43 3 521 2 522 -22 44 c-13 25 -40 59 -61 75 l-39 31 -531 2
c-424 2 -538 0 -562 -11z"/>
<path d="M1885 3555 c-51 -18 -110 -81 -124 -131 -15 -54 -15 -995 0 -1049 15
-52 82 -119 134 -134 55 -15 995 -15 1050 0 52 15 119 82 134 134 15 55 15
995 0 1050 -15 52 -82 119 -134 134 -64 18 -1008 14 -1060 -4z"/>
<path d="M4975 3554 c-47 -24 -83 -64 -100 -108 -14 -36 -15 -110 -13 -558 l3
-516 30 -43 c17 -23 50 -53 74 -66 l44 -23 511 0 c511 0 512 0 556 23 24 12
58 39 74 60 l31 39 0 542 0 542 -24 36 c-13 19 -40 46 -59 59 l-36 24 -530 3
c-467 2 -535 0 -561 -14z"/>
<path d="M9725 3555 c-51 -18 -110 -81 -124 -131 -15 -54 -15 -995 0 -1049 15
-52 82 -119 134 -134 55 -15 995 -15 1050 0 52 15 119 82 134 134 15 55 15
995 0 1050 -15 52 -82 119 -134 134 -64 18 -1008 14 -1060 -4z"/>
<path d="M8168 3540 c-47 -14 -88 -44 -116 -84 l-27 -39 0 -537 0 -537 28 -40
c15 -22 46 -50 70 -64 l42 -24 500 -3 c357 -2 511 0 540 8 55 16 101 53 125
100 19 38 20 60 20 560 0 500 -1 522 -20 560 -22 44 -68 82 -119 99 -40 13
-999 14 -1043 1z"/>
<path d="M5875 1874 c-47 -24 -83 -64 -100 -108 -14 -36 -15 -110 -13 -558 l3
-516 30 -43 c17 -23 50 -53 74 -66 l44 -23 511 0 c511 0 512 0 556 22 24 13
58 40 74 61 l31 39 0 542 0 542 -24 36 c-13 19 -40 46 -59 59 l-36 24 -530 3
c-467 2 -535 0 -561 -14z"/>
<path d="M7915 1874 c-47 -24 -83 -64 -100 -108 -14 -36 -15 -110 -13 -558 l3
-516 30 -43 c17 -23 50 -53 74 -66 l44 -23 511 0 c511 0 512 0 556 22 24 13
58 40 74 61 l31 39 0 542 0 542 -24 36 c-13 19 -40 46 -59 59 l-36 24 -530 3
c-467 2 -535 0 -561 -14z"/>
<path d="M9898 1870 c-45 -24 -82 -72 -98 -125 -8 -29 -10 -183 -8 -540 l3
-500 24 -42 c14 -24 42 -55 64 -70 l40 -28 537 0 537 0 40 28 c22 15 50 46 64
70 l24 42 3 500 c2 357 0 511 -8 540 -16 55 -53 101 -100 125 -38 19 -59 20
-562 20 -499 -1 -525 -2 -560 -20z"/>
<path d="M1988 1860 c-47 -14 -88 -44 -116 -84 l-27 -39 0 -537 0 -537 28 -40
c15 -22 46 -50 70 -64 l42 -24 500 -3 c357 -2 511 0 540 8 55 16 101 53 125
100 19 38 20 60 20 560 0 500 -1 522 -20 560 -22 44 -68 82 -119 99 -40 13
-999 14 -1043 1z"/>
<path d="M3918 1850 c-45 -24 -82 -72 -98 -125 -8 -29 -10 -183 -8 -540 l3
-500 24 -42 c14 -24 42 -55 64 -70 l40 -28 537 0 537 0 40 28 c22 15 50 46 64
70 l24 42 3 500 c2 357 0 511 -8 540 -16 55 -53 101 -100 125 -38 19 -59 20
-562 20 -499 -1 -525 -2 -560 -20z"/>
</g>
</svg>
