<?xml version="1.0" encoding="UTF-8"?>
<!DOCTYPE svg PUBLIC "-//W3C//DTD SVG 1.1//EN" "http://www.w3.org/Graphics/SVG/1.1/DTD/svg11.dtd">
<!-- Creator: CorelDRAW 2017 -->
<svg xmlns="http://www.w3.org/2000/svg" xml:space="preserve" width="800px" height="443px" version="1.1" style="shape-rendering:geometricPrecision; text-rendering:geometricPrecision; image-rendering:optimizeQuality; fill-rule:evenodd; clip-rule:evenodd"
viewBox="0 0 800 443"
 xmlns:xlink="http://www.w3.org/1999/xlink">
 <defs>
  <style type="text/css">
   <![CDATA[
    .fil0 {fill:#586181}
    .fil1 {fill:#909CBE}
   ]]>
  </style>
 </defs>
 <g id="Слой_x0020_1">
  <metadata id="CorelCorpID_0Corel-Layer"/>
  <g id="_2915859951904">
   <path class="fil0" d="M334.26 269.73c4.32,0 7.84,3.52 7.84,7.84 0,4.32 -3.52,7.84 -7.84,7.84 -4.32,0 -7.84,-3.52 -7.84,-7.84 0,-4.32 3.52,-7.84 7.84,-7.84z"/>
   <path class="fil1" d="M333.97 281.31l0.58 0c0.07,0 0.07,0 0.07,-0.07l0 -3.23 3.09 0c0.07,0 0.07,0 0.07,-0.08l0 -0.58c0,-0.07 0,-0.07 -0.07,-0.07l-3.09 0 0 -3.23c0,-0.07 0,-0.07 -0.07,-0.07l-0.58 0c-0.07,0 -0.07,0 -0.07,0.07l0.03 3.23 -3.12 0c-0.07,0 -0.07,0 -0.07,0.07l0.07 0.66 3.12 0 0.04 3.3 0 0z"/>
   <path class="fil0" d="M361.51 262.62c4.31,0 7.83,3.52 7.83,7.84 0,4.32 -3.52,7.84 -7.83,7.84 -4.32,0 -7.84,-3.52 -7.84,-7.84 0,-4.32 3.52,-7.84 7.84,-7.84z"/>
   <path class="fil1" d="M361.18 274.2l0.58 0c0.07,0 0.07,0 0.07,-0.08l0 -3.22 3.09 0c0.07,0 0.07,0 0.07,-0.08l0 -0.58c0,-0.07 0,-0.07 -0.07,-0.07l-3.09 0 0 -3.23c0,-0.07 0,-0.07 -0.07,-0.07l-0.58 0c-0.07,0 -0.07,0 -0.07,0.07l0.03 3.23 -3.12 0c-0.07,0 -0.07,0 -0.07,0.07l0.07 0.66 3.12 0 0.04 3.3z"/>
   <path class="fil0" d="M389.77 258.27c4.32,0 7.84,3.52 7.84,7.84 0,4.31 -3.52,7.83 -7.84,7.83 -4.32,0 -7.84,-3.52 -7.84,-7.83 0,-4.32 3.52,-7.84 7.84,-7.84z"/>
   <path class="fil1" d="M389.44 269.84l0.58 0c0.08,0 0.08,0 0.08,-0.07l0 -3.23 3.08 0c0.07,0 0.07,0 0.07,-0.07l0 -0.58c0,-0.07 0,-0.07 -0.07,-0.07l-3.08 0 0 -3.23c0,-0.07 0,-0.07 -0.08,-0.07l-0.58 0c-0.07,0 -0.07,0 -0.07,0.07l0.04 3.23 -3.12 0c-0.08,0 -0.08,0 -0.08,0.07l0.08 0.65 3.12 0 0.03 3.3 0 0z"/>
   <path class="fil0" d="M418.79 255.4c4.32,0 7.84,3.52 7.84,7.84 0,4.32 -3.52,7.84 -7.84,7.84 -4.31,0 -7.83,-3.52 -7.83,-7.84 0,-4.32 3.52,-7.84 7.83,-7.84z"/>
   <path class="fil1" d="M418.5 266.98l0.58 0c0.08,0 0.08,0 0.08,-0.08l0 -3.22 3.08 0c0.07,0 0.07,0 0.07,-0.08l0 -0.58c0,-0.07 0,-0.07 -0.07,-0.07l-3.08 0 0 -3.23c0,-0.07 0,-0.07 -0.08,-0.07l-0.58 0c-0.07,0 -0.07,0 -0.07,0.07l0.04 3.23 -3.12 0c-0.08,0 -0.08,0 -0.08,0.07l0.08 0.66 3.12 0 0.03 3.3z"/>
   <path class="fil0" d="M570.45 271.88c-4.32,0 -7.84,3.51 -7.84,7.83 0,4.32 3.52,7.84 7.84,7.84 4.31,0 7.83,-3.52 7.83,-7.84 0,-4.32 -3.52,-7.83 -7.83,-7.83z"/>
   <path class="fil1" d="M570.74 283.45l-0.58 0c-0.08,0 -0.08,0 -0.08,-0.07l0 -3.23 -3.08 0c-0.07,0 -0.07,0 -0.07,-0.07l0 -0.59c0,-0.07 0,-0.07 0.07,-0.07l3.08 0 0 -3.23c0,-0.07 0,-0.07 0.08,-0.07l0.58 0c0.07,0 0.07,0 0.07,0.07l-0.04 3.23 3.12 0c0.07,0 0.07,0 0.07,0.07l-0.07 0.66 -3.12 0 -0.03 3.3 0 0z"/>
   <path class="fil0" d="M542.51 264.91c-4.32,0 -7.84,3.52 -7.84,7.84 0,4.31 3.52,7.83 7.84,7.83 4.32,0 7.84,-3.52 7.84,-7.83 0,-4.32 -3.52,-7.84 -7.84,-7.84z"/>
   <path class="fil1" d="M542.8 276.48l-0.58 0c-0.07,0 -0.07,0 -0.07,-0.07l0 -3.23 -3.09 0c-0.07,0 -0.07,0 -0.07,-0.07l0 -0.58c0,-0.07 0,-0.07 0.07,-0.07l3.09 0 0 -3.23c0,-0.08 0,-0.08 0.07,-0.08l0.58 0c0.07,0 0.07,0 0.07,0.08l-0.03 3.23 3.12 0c0.07,0 0.07,0 0.07,0.07l-0.07 0.65 -3.12 0 -0.04 3.3 0 0z"/>
   <path class="fil0" d="M514.43 259.47c-4.32,0 -7.84,3.52 -7.84,7.83 0,4.32 3.52,7.84 7.84,7.84 4.32,0 7.84,-3.52 7.84,-7.84 0,-4.31 -3.52,-7.83 -7.84,-7.83z"/>
   <path class="fil1" d="M514.72 271.04l-0.58 0c-0.07,0 -0.07,0 -0.07,-0.07l0 -3.23 -3.09 0c-0.07,0 -0.07,0 -0.07,-0.07l0 -0.58c0,-0.08 0,-0.08 0.07,-0.08l3.09 0 0 -3.22c0,-0.08 0,-0.08 0.07,-0.08l0.58 0c0.07,0 0.07,0 0.07,0.08l-0.04 3.22 3.13 0c0.07,0 0.07,0 0.07,0.08l-0.07 0.65 -3.13 0 -0.03 3.3 0 0z"/>
   <path class="fil0" d="M485.91 256.09c-4.32,0 -7.83,3.52 -7.83,7.84 0,4.32 3.51,7.84 7.83,7.84 4.32,0 7.84,-3.52 7.84,-7.84 0,-4.32 -3.52,-7.84 -7.84,-7.84z"/>
   <path class="fil1" d="M486.2 267.63l-0.58 0c-0.07,0 -0.07,0 -0.07,-0.07l0 -3.23 -3.08 0c-0.08,0 -0.08,0 -0.08,-0.07l0 -0.58c0,-0.08 0,-0.08 0.08,-0.08l3.08 0 0 -3.23c0,-0.07 0,-0.07 0.07,-0.07l0.58 0c0.07,0 0.07,0 0.07,0.07l-0.03 3.23 3.12 0c0.07,0 0.07,0 0.07,0.08l-0.07 0.65 -3.12 0 -0.04 3.3 0 0z"/>
   <path class="fil0" d="M492.84 364.03c-4.32,0 -7.83,3.52 -7.83,7.83 0,4.32 3.51,7.84 7.83,7.84 4.32,0 7.84,-3.52 7.84,-7.84 0,-4.31 -3.52,-7.83 -7.84,-7.83z"/>
   <path class="fil1" d="M493.13 375.6l-0.58 0c-0.07,0 -0.07,0 -0.07,-0.07l0 -3.23 -3.08 0c-0.08,0 -0.08,0 -0.08,-0.07l0 -0.58c0,-0.08 0,-0.08 0.08,-0.08l3.08 0 0 -3.22c0,-0.08 0,-0.08 0.07,-0.08l0.58 0c0.07,0 0.07,0 0.07,0.08l-0.03 3.22 3.12 0c0.07,0 0.07,0 0.07,0.08l-0.07 0.65 -3.12 0 -0.04 3.3 0 0z"/>
   <path class="fil0" d="M460.62 364.03c-4.31,0 -7.83,3.52 -7.83,7.83 0,4.32 3.52,7.84 7.83,7.84 4.32,0 7.84,-3.52 7.84,-7.84 0,-4.31 -3.52,-7.83 -7.84,-7.83z"/>
   <path class="fil1" d="M460.91 375.6l-0.57 0c-0.08,0 -0.08,0 -0.08,-0.07l0 -3.23 -3.08 0c-0.07,0 -0.07,0 -0.07,-0.07l0 -0.58c0,-0.08 0,-0.08 0.07,-0.08l3.08 0 0 -3.22c0,-0.08 0,-0.08 0.08,-0.08l0.57 0c0.08,0 0.08,0 0.08,0.08l-0.04 3.22 3.12 0c0.07,0 0.07,0 0.07,0.08l-0.07 0.65 -3.12 0 -0.04 3.3 0 0z"/>
   <path class="fil0" d="M428.37 364.03c-4.32,0 -7.84,3.52 -7.84,7.83 0,4.32 3.52,7.84 7.84,7.84 4.32,0 7.84,-3.52 7.84,-7.84 0,-4.31 -3.52,-7.83 -7.84,-7.83z"/>
   <path class="fil1" d="M428.66 375.6l-0.58 0c-0.07,0 -0.07,0 -0.07,-0.07l0 -3.23 -3.09 0c-0.07,0 -0.07,0 -0.07,-0.07l0 -0.58c0,-0.08 0,-0.08 0.07,-0.08l3.09 0 0 -3.22c0,-0.08 0,-0.08 0.07,-0.08l0.58 0c0.07,0 0.07,0 0.07,0.08l-0.03 3.22 3.12 0c0.07,0 0.07,0 0.07,0.08l-0.07 0.65 -3.12 0 -0.04 3.3 0 0z"/>
   <path class="fil0" d="M396.15 364.03c-4.31,0 -7.83,3.52 -7.83,7.83 0,4.32 3.52,7.84 7.83,7.84 4.32,0 7.84,-3.52 7.84,-7.84 0,-4.31 -3.52,-7.83 -7.84,-7.83z"/>
   <path class="fil1" d="M396.44 375.6l-0.58 0c-0.07,0 -0.07,0 -0.07,-0.07l0 -3.23 -3.08 0c-0.07,0 -0.07,0 -0.07,-0.07l0 -0.58c0,-0.08 0,-0.08 0.07,-0.08l3.08 0 0 -3.22c0,-0.08 0,-0.08 0.07,-0.08l0.58 0c0.08,0 0.08,0 0.08,0.08l-0.04 3.22 3.12 0c0.07,0 0.07,0 0.07,0.08l-0.07 0.65 -3.12 0 -0.04 3.3 0 0z"/>
   <path class="fil0" d="M551.72 364.03c-4.31,0 -7.83,3.52 -7.83,7.83 0,4.32 3.52,7.84 7.83,7.84 4.32,0 7.84,-3.52 7.84,-7.84 0,-4.31 -3.52,-7.83 -7.84,-7.83z"/>
   <path class="fil1" d="M552.02 375.6l-0.58 0c-0.08,0 -0.08,0 -0.08,-0.07l0 -3.23 -3.08 0c-0.07,0 -0.07,0 -0.07,-0.07l0 -0.58c0,-0.08 0,-0.08 0.07,-0.08l3.08 0 0 -3.22c0,-0.08 0,-0.08 0.08,-0.08l0.58 0c0.07,0 0.07,0 0.07,0.08l-0.04 3.22 3.12 0c0.07,0 0.07,0 0.07,0.08l-0.07 0.65 -3.12 0 -0.03 3.3 0 0z"/>
   <path class="fil0" d="M337.27 364.03c-4.32,0 -7.84,3.52 -7.84,7.83 0,4.32 3.52,7.84 7.84,7.84 4.32,0 7.84,-3.52 7.84,-7.84 0,-4.31 -3.52,-7.83 -7.84,-7.83z"/>
   <path class="fil1" d="M337.56 375.6l-0.58 0c-0.07,0 -0.07,0 -0.07,-0.07l0 -3.23 -3.08 0c-0.08,0 -0.08,0 -0.08,-0.07l0 -0.58c0,-0.08 0,-0.08 0.08,-0.08l3.08 0 0 -3.22c0,-0.08 0,-0.08 0.07,-0.08l0.58 0c0.07,0 0.07,0 0.07,0.08l-0.03 3.22 3.12 0c0.07,0 0.07,0 0.07,0.08l-0.07 0.65 -3.12 0 -0.04 3.3 0 0z"/>
   <path class="fil0" d="M35.96 71.17c4.32,0 7.84,3.52 7.84,7.84 0,4.32 -3.52,7.84 -7.84,7.84 -4.32,0 -7.84,-3.52 -7.84,-7.84 0,-4.32 3.52,-7.84 7.84,-7.84z"/>
   <path class="fil1" d="M35.67 82.67l0.58 0c0.07,0 0.07,0 0.07,-0.07l0 -3.23 3.09 0c0.07,0 0.07,0 0.07,-0.07l0 -0.58c0,-0.07 0,-0.07 -0.07,-0.07l-3.09 0 0 -3.23c0,-0.07 0,-0.07 -0.07,-0.07l-0.58 0c-0.07,0 -0.07,0 -0.07,0.07l0.03 3.23 -3.12 0c-0.07,0 -0.07,0 -0.07,0.07l0.07 0.65 3.12 0 0.04 3.3 0 0z"/>
   <path class="fil0" d="M60.45 56.99c4.32,0 7.84,3.52 7.84,7.83 0,4.32 -3.52,7.84 -7.84,7.84 -4.32,0 -7.84,-3.52 -7.84,-7.84 0,-4.31 3.52,-7.83 7.84,-7.83z"/>
   <path class="fil1" d="M60.16 68.49l0.58 0c0.07,0 0.07,0 0.07,-0.08l0 -3.22 3.09 0c0.07,0 0.07,0 0.07,-0.08l0 -0.58c0,-0.07 0,-0.07 -0.07,-0.07l-3.09 0 0 -3.23c0,-0.07 0,-0.07 -0.07,-0.07l-0.58 0c-0.07,0 -0.07,0 -0.07,0.07l0.03 3.23 -3.12 0c-0.07,0 -0.07,0 -0.07,0.07l0.07 0.66 3.12 0 0.04 3.3 0 0z"/>
   <path class="fil0" d="M86.32 43.45c4.32,0 7.83,3.52 7.83,7.84 0,4.32 -3.51,7.84 -7.83,7.84 -4.32,0 -7.84,-3.52 -7.84,-7.84 0,-4.32 3.52,-7.84 7.84,-7.84z"/>
   <path class="fil1" d="M86.03 54.92l0.58 0c0.07,0 0.07,0 0.07,-0.07l0 -3.23 3.09 0c0.07,0 0.07,0 0.07,-0.08l0 -0.58c0,-0.07 0,-0.07 -0.07,-0.07l-3.09 0 0 -3.23c0,-0.07 0,-0.07 -0.07,-0.07l-0.58 0c-0.07,0 -0.07,0 -0.07,0.07l0.03 3.23 -3.12 0c-0.07,0 -0.07,0 -0.07,0.07l0.07 0.66 3.12 0 0.04 3.3 0 0z"/>
   <path class="fil0" d="M112.37 31.37c4.31,0 7.83,3.52 7.83,7.84 0,4.32 -3.52,7.84 -7.83,7.84 -4.32,0 -7.84,-3.52 -7.84,-7.84 0,-4.32 3.52,-7.84 7.84,-7.84z"/>
   <path class="fil1" d="M112.08 42.87l0.58 0c0.07,0 0.07,0 0.07,-0.07l0 -3.23 3.08 0c0.08,0 0.08,0 0.08,-0.07l0 -0.58c0,-0.07 0,-0.07 -0.08,-0.07l-3.08 0 0 -3.23c0,-0.07 0,-0.07 -0.07,-0.07l-0.58 0c-0.07,0 -0.07,0 -0.07,0.07l0.03 3.23 -3.12 0c-0.07,0 -0.07,0 -0.07,0.07l0.07 0.65 3.12 0 0.04 3.3 0 0z"/>
   <path class="fil0" d="M637.02 37.76c-4.32,0 -7.84,3.52 -7.84,7.83 0,4.32 3.52,7.84 7.84,7.84 4.32,0 7.84,-3.52 7.84,-7.84 0,-4.31 -3.52,-7.83 -7.84,-7.83z"/>
   <path class="fil1" d="M637.31 49.29l-0.58 0c-0.07,0 -0.07,0 -0.07,-0.07l0 -3.23 -3.08 0c-0.08,0 -0.08,0 -0.08,-0.07l0 -0.58c0,-0.07 0,-0.07 0.08,-0.07l3.08 0 0 -3.23c0,-0.07 0,-0.07 0.07,-0.07l0.58 0c0.07,0 0.07,0 0.07,0.07l-0.03 3.23 3.12 0c0.07,0 0.07,0 0.07,0.07l-0.07 0.65 -3.12 0 -0.04 3.31 0 -0.01z"/>
   <path class="fil0" d="M609.45 31.37c-4.32,0 -7.84,3.52 -7.84,7.84 0,4.32 3.52,7.84 7.84,7.84 4.32,0 7.83,-3.52 7.83,-7.84 0,-4.32 -3.51,-7.84 -7.83,-7.84z"/>
   <path class="fil1" d="M609.74 42.95l-0.58 0c-0.07,0 -0.07,0 -0.07,-0.08l0 -3.23 -3.09 0c-0.07,0 -0.07,0 -0.07,-0.07l0 -0.58c0,-0.07 0,-0.07 0.07,-0.07l3.09 0 0 -3.23c0,-0.07 0,-0.07 0.07,-0.07l0.58 0c0.07,0 0.07,0 0.07,0.07l-0.04 3.23 3.13 0c0.07,0 0.07,0 0.07,0.07l-0.07 0.65 -3.13 0 -0.03 3.31 0 0z"/>
   <path class="fil0" d="M581.04 25.75c-4.32,0 -7.84,3.52 -7.84,7.83 0,4.32 3.52,7.84 7.84,7.84 4.32,0 7.84,-3.52 7.84,-7.84 0,-4.31 -3.52,-7.83 -7.84,-7.83z"/>
   <path class="fil1" d="M581.33 37.29l-0.58 0c-0.07,0 -0.07,0 -0.07,-0.08l0 -3.22 -3.09 0c-0.07,0 -0.07,0 -0.07,-0.08l0 -0.58c0,-0.07 0,-0.07 0.07,-0.07l3.09 0 0 -3.23c0,-0.07 0,-0.07 0.07,-0.07l0.58 0c0.07,0 0.07,0 0.07,0.07l-0.03 3.23 3.12 0c0.07,0 0.07,0 0.07,0.07l-0.07 0.66 -3.12 0 -0.04 3.3z"/>
   <path class="fil0" d="M552.67 21.03c-4.32,0 -7.84,3.52 -7.84,7.84 0,4.32 3.52,7.84 7.84,7.84 4.32,0 7.84,-3.52 7.84,-7.84 0,-4.32 -3.52,-7.84 -7.84,-7.84z"/>
   <path class="fil1" d="M552.96 32.61l-0.58 0c-0.07,0 -0.07,0 -0.07,-0.08l0 -3.23 -3.09 0c-0.07,0 -0.07,0 -0.07,-0.07l0 -0.58c0,-0.07 0,-0.07 0.07,-0.07l3.09 0 0 -3.23c0,-0.07 0,-0.07 0.07,-0.07l0.58 0c0.07,0 0.07,0 0.07,0.07l-0.03 3.23 3.11 0c0.08,0 0.08,0 0.08,0.07l-0.08 0.66 -3.11 0 -0.04 3.3 0 0z"/>
   <path class="fil0" d="M259.59 37.76c4.32,0 7.84,3.52 7.84,7.83 0,4.32 -3.52,7.84 -7.84,7.84 -4.31,0 -7.83,-3.52 -7.83,-7.84 0,-4.31 3.52,-7.83 7.83,-7.83z"/>
   <path class="fil1" d="M259.3 49.29l0.58 0c0.08,0 0.08,0 0.08,-0.07l0 -3.23 3.08 0c0.07,0 0.07,0 0.07,-0.07l0 -0.58c0,-0.07 0,-0.07 -0.07,-0.07l-3.08 0 0 -3.23c0,-0.07 0,-0.07 -0.08,-0.07l-0.58 0c-0.07,0 -0.07,0 -0.07,0.07l0.04 3.23 -3.12 0c-0.07,0 -0.07,0 -0.07,0.07l0.07 0.65 3.12 0 0.03 3.31 0 -0.01z"/>
   <path class="fil0" d="M287.17 31.37c4.31,0 7.83,3.52 7.83,7.84 0,4.32 -3.52,7.84 -7.83,7.84 -4.32,0 -7.84,-3.52 -7.84,-7.84 0,-4.32 3.52,-7.84 7.84,-7.84z"/>
   <path class="fil1" d="M286.88 42.95l0.58 0c0.07,0 0.07,0 0.07,-0.08l0 -3.23 3.08 0c0.08,0 0.08,0 0.08,-0.07l0 -0.58c0,-0.07 0,-0.07 -0.08,-0.07l-3.08 0 0 -3.23c0,-0.07 0,-0.07 -0.07,-0.07l-0.58 0c-0.07,0 -0.07,0 -0.07,0.07l0.03 3.23 -3.12 0c-0.07,0 -0.07,0 -0.07,0.07l0.07 0.65 3.12 0 0.04 3.31 0 0z"/>
   <path class="fil0" d="M315.57 25.75c4.32,0 7.84,3.52 7.84,7.83 0,4.32 -3.52,7.84 -7.84,7.84 -4.31,0 -7.83,-3.52 -7.83,-7.84 0,-4.31 3.52,-7.83 7.83,-7.83z"/>
   <path class="fil1" d="M315.28 37.29l0.58 0c0.08,0 0.08,0 0.08,-0.08l0 -3.22 3.08 0c0.07,0 0.07,0 0.07,-0.08l0 -0.58c0,-0.07 0,-0.07 -0.07,-0.07l-3.08 0 0 -3.23c0,-0.07 0,-0.07 -0.08,-0.07l-0.58 0c-0.07,0 -0.07,0 -0.07,0.07l0.04 3.23 -3.12 0c-0.07,0 -0.07,0 -0.07,0.07l0.07 0.66 3.12 0 0.03 3.3z"/>
   <path class="fil0" d="M343.95 21.03c4.31,0 7.83,3.52 7.83,7.84 0,4.32 -3.52,7.84 -7.83,7.84 -4.32,0 -7.84,-3.52 -7.84,-7.84 0,-4.32 3.52,-7.84 7.84,-7.84z"/>
   <path class="fil1" d="M343.66 32.61l0.58 0c0.07,0 0.07,0 0.07,-0.08l0 -3.23 3.08 0c0.07,0 0.07,0 0.07,-0.07l0 -0.58c0,-0.07 0,-0.07 -0.07,-0.07l-3.08 0 0 -3.23c0,-0.07 0,-0.07 -0.07,-0.07l-0.58 0c-0.08,0 -0.08,0 -0.08,0.07l0.04 3.23 -3.12 0c-0.07,0 -0.07,0 -0.07,0.07l0.07 0.66 3.12 0 0.04 3.3 0 0z"/>
   <path class="fil0" d="M61.65 119.93c4.31,0 7.83,3.52 7.83,7.84 0,4.32 -3.52,7.84 -7.83,7.84 -4.32,0 -7.84,-3.52 -7.84,-7.84 0,-4.32 3.52,-7.84 7.84,-7.84z"/>
   <path class="fil1" d="M61.36 131.47l0.58 0c0.07,0 0.07,0 0.07,-0.07l0 -3.23 3.08 0c0.08,0 0.08,0 0.08,-0.07l0 -0.58c0,-0.08 0,-0.08 -0.08,-0.08l-3.08 0 0 -3.23c0,-0.07 0,-0.07 -0.07,-0.07l-0.58 0c-0.08,0 -0.08,0 -0.08,0.07l0.04 3.23 -3.12 0c-0.07,0 -0.07,0 -0.07,0.08l0.07 0.65 3.12 0 0.04 3.3z"/>
   <path class="fil0" d="M86.61 105.38c4.31,0 7.83,3.52 7.83,7.84 0,4.32 -3.52,7.84 -7.83,7.84 -4.32,0 -7.84,-3.52 -7.84,-7.84 0,-4.32 3.52,-7.84 7.84,-7.84z"/>
   <path class="fil1" d="M86.32 116.92l0.58 0c0.07,0 0.07,0 0.07,-0.07l0 -3.23 3.08 0c0.08,0 0.08,0 0.08,-0.07l0 -0.58c0,-0.08 0,-0.08 -0.08,-0.08l-3.08 0 0 -3.22c0,-0.08 0,-0.08 -0.07,-0.08l-0.58 0c-0.08,0 -0.08,0 -0.08,0.08l0.04 3.22 -3.12 0c-0.07,0 -0.07,0 -0.07,0.08l0.07 0.65 3.12 0 0.04 3.3z"/>
   <path class="fil0" d="M112.48 91.82c4.31,0 7.83,3.52 7.83,7.83 0,4.32 -3.52,7.84 -7.83,7.84 -4.32,0 -7.84,-3.52 -7.84,-7.84 0,-4.31 3.52,-7.83 7.84,-7.83z"/>
   <path class="fil1" d="M112.19 103.39l0.58 0c0.07,0 0.07,0 0.07,-0.07l0 -3.23 3.08 0c0.08,0 0.08,0 0.08,-0.08l0 -0.58c0,-0.07 0,-0.07 -0.08,-0.07l-3.08 0 0 -3.23c0,-0.07 0,-0.07 -0.07,-0.07l-0.58 0c-0.08,0 -0.08,0 -0.08,0.07l0.04 3.23 -3.12 0c-0.07,0 -0.07,0 -0.07,0.07l0.07 0.66 3.12 0 0.04 3.3 0 0z"/>
   <path class="fil0" d="M138.53 79.77c4.31,0 7.83,3.52 7.83,7.84 0,4.31 -3.52,7.83 -7.83,7.83 -4.32,0 -7.84,-3.52 -7.84,-7.83 0,-4.32 3.52,-7.84 7.84,-7.84z"/>
   <path class="fil1" d="M138.24 91.34l0.58 0c0.07,0 0.07,0 0.07,-0.07l0 -3.23 3.08 0c0.07,0 0.07,0 0.07,-0.07l0 -0.58c0,-0.07 0,-0.07 -0.07,-0.07l-3.08 0 0 -3.23c0,-0.07 0,-0.07 -0.07,-0.07l-0.58 0c-0.08,0 -0.08,0 -0.08,0.07l0.04 3.23 -3.12 0c-0.07,0 -0.07,0 -0.07,0.07l0.07 0.65 3.12 0 0.04 3.31 0 -0.01z"/>
   <path class="fil0" d="M35.96 135.21c4.32,0 7.84,3.52 7.84,7.83 0,4.32 -3.52,7.84 -7.84,7.84 -4.32,0 -7.84,-3.52 -7.84,-7.84 0,-4.31 3.52,-7.83 7.84,-7.83z"/>
   <path class="fil1" d="M35.67 146.78l0.58 0c0.07,0 0.07,0 0.07,-0.07l0 -3.23 3.09 0c0.07,0 0.07,0 0.07,-0.07l0 -0.58c0,-0.08 0,-0.08 -0.07,-0.08l-3.09 0 0 -3.22c0,-0.08 0,-0.08 -0.07,-0.08l-0.58 0c-0.07,0 -0.07,0 -0.07,0.08l0.03 3.22 -3.12 0c-0.07,0 -0.07,0 -0.07,0.08l0.07 0.65 3.12 0 0.04 3.3 0 0z"/>
   <path class="fil0" d="M647.91 93.77c-4.32,0 -7.84,3.52 -7.84,7.84 0,4.32 3.52,7.84 7.84,7.84 4.31,0 7.83,-3.52 7.83,-7.84 0,-4.32 -3.52,-7.84 -7.83,-7.84z"/>
   <path class="fil1" d="M648.19 105.35l-0.57 0c-0.08,0 -0.08,0 -0.08,-0.08l0 -3.22 -3.08 0c-0.07,0 -0.07,0 -0.07,-0.08l0 -0.58c0,-0.07 0,-0.07 0.07,-0.07l3.08 0 0 -3.23c0,-0.07 0,-0.07 0.08,-0.07l0.57 0c0.08,0 0.08,0 0.08,0.07l-0.04 3.23 3.12 0c0.07,0 0.07,0 0.07,0.07l-0.07 0.66 -3.12 0 -0.04 3.3z"/>
   <path class="fil0" d="M619.64 85.94c-4.31,0 -7.83,3.52 -7.83,7.83 0,4.32 3.52,7.84 7.83,7.84 4.32,0 7.84,-3.52 7.84,-7.84 0,-4.31 -3.52,-7.83 -7.84,-7.83z"/>
   <path class="fil1" d="M619.93 97.51l-0.58 0c-0.07,0 -0.07,0 -0.07,-0.07l0 -3.23 -3.08 0c-0.08,0 -0.08,0 -0.08,-0.07l0 -0.58c0,-0.07 0,-0.07 0.08,-0.07l3.08 0 0 -3.23c0,-0.08 0,-0.08 0.07,-0.08l0.58 0c0.08,0 0.08,0 0.08,0.08l-0.04 3.23 3.12 0c0.07,0 0.07,0 0.07,0.07l-0.07 0.65 -3.12 0 -0.04 3.3 0 0z"/>
   <path class="fil0" d="M592.07 79.23c-4.32,0 -7.84,3.52 -7.84,7.83 0,4.32 3.52,7.84 7.84,7.84 4.32,0 7.84,-3.52 7.84,-7.84 0,-4.31 -3.52,-7.83 -7.84,-7.83z"/>
   <path class="fil1" d="M592.36 90.76l-0.58 0c-0.07,0 -0.07,0 -0.07,-0.07l0 -3.23 -3.09 0c-0.07,0 -0.07,0 -0.07,-0.07l0 -0.58c0,-0.07 0,-0.07 0.07,-0.07l3.09 0 0 -3.23c0,-0.07 0,-0.07 0.07,-0.07l0.58 0c0.07,0 0.07,0 0.07,0.07l-0.03 3.23 3.12 0c0.07,0 0.07,0 0.07,0.07l-0.07 0.65 -3.12 0 -0.04 3.3z"/>
   <path class="fil0" d="M562.94 74.29c-4.32,0 -7.84,3.52 -7.84,7.84 0,4.32 3.52,7.84 7.84,7.84 4.31,0 7.83,-3.52 7.83,-7.84 0,-4.32 -3.52,-7.84 -7.83,-7.84z"/>
   <path class="fil1" d="M563.26 85.87l-0.58 0c-0.07,0 -0.07,0 -0.07,-0.08l0 -3.23 -3.08 0c-0.08,0 -0.08,0 -0.08,-0.07l0 -0.58c0,-0.07 0,-0.07 0.08,-0.07l3.08 0 0 -3.23c0,-0.07 0,-0.07 0.07,-0.07l0.58 0c0.07,0 0.07,0 0.07,0.07l-0.03 3.23 3.12 0c0.07,0 0.07,0 0.07,0.07l-0.07 0.66 -3.12 0 -0.04 3.3 0 0z"/>
   <path class="fil0" d="M533.84 69.54c-4.32,0 -7.84,3.52 -7.84,7.84 0,4.31 3.52,7.83 7.84,7.83 4.32,0 7.84,-3.52 7.84,-7.83 0,-4.32 -3.52,-7.84 -7.84,-7.84z"/>
   <path class="fil1" d="M534.13 81.08l-0.58 0c-0.07,0 -0.07,0 -0.07,-0.08l0 -3.23 -3.09 0c-0.07,0 -0.07,0 -0.07,-0.07l0 -0.58c0,-0.07 0,-0.07 0.07,-0.07l3.09 0 0 -3.23c0,-0.07 0,-0.07 0.07,-0.07l0.58 0c0.07,0 0.07,0 0.07,0.07l-0.03 3.23 3.11 0c0.08,0 0.08,0 0.08,0.07l-0.08 0.66 -3.11 0 -0.04 3.3 0 0z"/>
   <path class="fil0" d="M505.43 66.49c-4.32,0 -7.84,3.52 -7.84,7.84 0,4.32 3.52,7.83 7.84,7.83 4.32,0 7.84,-3.51 7.84,-7.83 0,-4.32 -3.52,-7.84 -7.84,-7.84z"/>
   <path class="fil1" d="M505.72 78.03l-0.58 0c-0.07,0 -0.07,0 -0.07,-0.07l0 -3.23 -3.09 0c-0.07,0 -0.07,0 -0.07,-0.07l0 -0.59c0,-0.07 0,-0.07 0.07,-0.07l3.09 0 0 -3.23c0,-0.07 0,-0.07 0.07,-0.07l0.58 0c0.07,0 0.07,0 0.07,0.07l-0.03 3.23 3.12 0c0.07,0 0.07,0 0.07,0.07l-0.07 0.66 -3.12 0 -0.04 3.3 0 0z"/>
   <path class="fil0" d="M256.55 90.58c4.31,0 7.83,3.52 7.83,7.84 0,4.32 -3.52,7.83 -7.83,7.83 -4.32,0 -7.84,-3.51 -7.84,-7.83 0,-4.32 3.52,-7.84 7.84,-7.84z"/>
   <path class="fil1" d="M256.26 102.08l0.58 0c0.07,0 0.07,0 0.07,-0.07l0 -3.23 3.08 0c0.08,0 0.08,0 0.08,-0.07l0 -0.58c0,-0.07 0,-0.07 -0.08,-0.07l-3.08 0 0 -3.23c0,-0.07 0,-0.07 -0.07,-0.07l-0.58 0c-0.08,0 -0.08,0 -0.08,0.07l0.04 3.23 -3.12 0c-0.07,0 -0.07,0 -0.07,0.07l0.07 0.65 3.12 0 0.04 3.3 0 0z"/>
   <path class="fil0" d="M284.81 82.75c4.32,0 7.84,3.51 7.84,7.83 0,4.32 -3.52,7.84 -7.84,7.84 -4.32,0 -7.84,-3.52 -7.84,-7.84 0,-4.32 3.52,-7.83 7.84,-7.83z"/>
   <path class="fil1" d="M284.52 94.25l0.58 0c0.07,0 0.07,0 0.07,-0.08l0 -3.22 3.08 0c0.08,0 0.08,0 0.08,-0.08l0 -0.58c0,-0.07 0,-0.07 -0.08,-0.07l-3.08 0 0 -3.23c0,-0.07 0,-0.07 -0.07,-0.07l-0.58 0c-0.07,0 -0.07,0 -0.07,0.07l0.03 3.23 -3.12 0c-0.07,0 -0.07,0 -0.07,0.07l0.07 0.66 3.12 0 0.04 3.3z"/>
   <path class="fil0" d="M312.38 76.54c4.32,0 7.84,3.52 7.84,7.84 0,4.32 -3.52,7.83 -7.84,7.83 -4.32,0 -7.83,-3.51 -7.83,-7.83 0,-4.32 3.51,-7.84 7.83,-7.84z"/>
   <path class="fil1" d="M312.09 88.04l0.58 0c0.07,0 0.07,0 0.07,-0.07l0 -3.23 3.09 0c0.07,0 0.07,0 0.07,-0.07l0 -0.58c0,-0.07 0,-0.07 -0.07,-0.07l-3.09 0 0 -3.23c0,-0.08 0,-0.08 -0.07,-0.08l-0.58 0c-0.07,0 -0.07,0 -0.07,0.08l0.04 3.23 -3.12 0c-0.08,0 -0.08,0 -0.08,0.07l0.08 0.65 3.12 0 0.03 3.3 0 0z"/>
   <path class="fil0" d="M341.52 72.22c4.31,0 7.83,3.52 7.83,7.84 0,4.32 -3.52,7.84 -7.83,7.84 -4.32,0 -7.84,-3.52 -7.84,-7.84 0,-4.32 3.52,-7.84 7.84,-7.84z"/>
   <path class="fil1" d="M341.22 83.8l0.59 0c0.07,0 0.07,0 0.07,-0.08l0 -3.22 3.08 0c0.07,0 0.07,0 0.07,-0.08l0 -0.58c0,-0.07 0,-0.07 -0.07,-0.07l-3.08 0 0 -3.23c0,-0.07 0,-0.07 -0.07,-0.07l-0.59 0c-0.07,0 -0.07,0 -0.07,0.07l0.04 3.23 -3.12 0c-0.07,0 -0.07,0 -0.07,0.07l0.07 0.66 3.12 0 0.04 3.3 -0.01 0z"/>
   <path class="fil0" d="M370.61 67.44c4.32,0 7.84,3.51 7.84,7.83 0,4.32 -3.52,7.84 -7.84,7.84 -4.32,0 -7.83,-3.52 -7.83,-7.84 0,-4.32 3.51,-7.83 7.83,-7.83z"/>
   <path class="fil1" d="M370.32 79.01l0.58 0c0.08,0 0.08,0 0.08,-0.07l0 -3.23 3.08 0c0.07,0 0.07,0 0.07,-0.08l0 -0.58c0,-0.07 0,-0.07 -0.07,-0.07l-3.08 0 0 -3.23c0,-0.07 0,-0.07 -0.08,-0.07l-0.58 0c-0.07,0 -0.07,0 -0.07,0.07l0.04 3.23 -3.12 0c-0.08,0 -0.08,0 -0.08,0.07l0.08 0.66 3.12 0 0.03 3.3 0 0z"/>
   <path class="fil0" d="M399.02 64.39c4.32,0 7.84,3.52 7.84,7.83 0,4.32 -3.52,7.84 -7.84,7.84 -4.32,0 -7.84,-3.52 -7.84,-7.84 0,-4.31 3.52,-7.83 7.84,-7.83z"/>
   <path class="fil1" d="M398.73 75.96l0.58 0c0.07,0 0.07,0 0.07,-0.07l0 -3.23 3.09 0c0.07,0 0.07,0 0.07,-0.07l0 -0.58c0,-0.07 0,-0.07 -0.07,-0.07l-3.09 0 0 -3.23c0,-0.08 0,-0.08 -0.07,-0.08l-0.58 0c-0.07,0 -0.07,0 -0.07,0.08l0.03 3.23 -3.12 0c-0.07,0 -0.07,0 -0.07,0.07l0.07 0.65 3.12 0 0.04 3.3 0 0z"/>
   <path class="fil0" d="M764.04 141.19c-4.32,0 -7.84,3.52 -7.84,7.84 0,4.32 3.52,7.84 7.84,7.84 4.32,0 7.84,-3.52 7.84,-7.84 0,-4.32 -3.52,-7.84 -7.84,-7.84z"/>
   <path class="fil1" d="M764.33 152.77l-0.58 0c-0.07,0 -0.07,0 -0.07,-0.08l0 -3.22 -3.09 0c-0.07,0 -0.07,0 -0.07,-0.08l0 -0.58c0,-0.07 0,-0.07 0.07,-0.07l3.09 0 0 -3.23c0,-0.07 0,-0.07 0.07,-0.07l0.58 0c0.07,0 0.07,0 0.07,0.07l-0.04 3.23 3.13 0c0.07,0 0.07,0 0.07,0.07l-0.07 0.66 -3.13 0 -0.03 3.3 0 0z"/>
   <path class="fil0" d="M737.95 128.2c-4.32,0 -7.83,3.52 -7.83,7.84 0,4.32 3.51,7.84 7.83,7.84 4.32,0 7.84,-3.52 7.84,-7.84 0,-4.32 -3.52,-7.84 -7.84,-7.84z"/>
   <path class="fil1" d="M738.24 139.78l-0.58 0c-0.07,0 -0.07,0 -0.07,-0.08l0 -3.22 -3.08 0c-0.08,0 -0.08,0 -0.08,-0.08l0 -0.58c0,-0.07 0,-0.07 0.08,-0.07l3.08 0 0 -3.23c0,-0.07 0,-0.07 0.07,-0.07l0.58 0c0.07,0 0.07,0 0.07,0.07l-0.03 3.23 3.12 0c0.07,0 0.07,0 0.07,0.07l-0.07 0.66 -3.12 0 -0.04 3.3 0 0z"/>
   <path class="fil0" d="M276.25 135.97c4.31,0 7.83,3.52 7.83,7.83 0,4.32 -3.52,7.84 -7.83,7.84 -4.32,0 -7.84,-3.52 -7.84,-7.84 0,-4.31 3.52,-7.83 7.84,-7.83z"/>
   <path class="fil1" d="M275.96 147.54l0.58 0c0.07,0 0.07,0 0.07,-0.07l0 -3.23 3.08 0c0.07,0 0.07,0 0.07,-0.07l0 -0.58c0,-0.08 0,-0.08 -0.07,-0.08l-3.08 0 0 -3.22c0,-0.08 0,-0.08 -0.07,-0.08l-0.58 0c-0.08,0 -0.08,0 -0.08,0.08l0.04 3.22 -3.12 0c-0.07,0 -0.07,0 -0.07,0.08l0.07 0.65 3.12 0 0.04 3.3 0 0z"/>
   <path class="fil0" d="M304.11 128.64c4.32,0 7.84,3.52 7.84,7.84 0,4.31 -3.52,7.83 -7.84,7.83 -4.32,0 -7.84,-3.52 -7.84,-7.83 0,-4.32 3.52,-7.84 7.84,-7.84z"/>
   <path class="fil1" d="M303.82 140.21l0.58 0c0.07,0 0.07,0 0.07,-0.07l0 -3.23 3.09 0c0.07,0 0.07,0 0.07,-0.07l0 -0.58c0,-0.07 0,-0.07 -0.07,-0.07l-3.09 0 0 -3.23c0,-0.08 0,-0.08 -0.07,-0.08l-0.58 0c-0.07,0 -0.07,0 -0.07,0.08l0.03 3.23 -3.12 0c-0.07,0 -0.07,0 -0.07,0.07l0.07 0.65 3.12 0 0.04 3.3z"/>
   <path class="fil0" d="M334.26 122.36c4.32,0 7.84,3.52 7.84,7.84 0,4.32 -3.52,7.84 -7.84,7.84 -4.32,0 -7.84,-3.52 -7.84,-7.84 0,-4.32 3.52,-7.84 7.84,-7.84z"/>
   <path class="fil1" d="M333.97 133.94l0.58 0c0.07,0 0.07,0 0.07,-0.07l0 -3.23 3.09 0c0.07,0 0.07,0 0.07,-0.08l0 -0.58c0,-0.07 0,-0.07 -0.07,-0.07l-3.09 0 0 -3.23c0,-0.07 0,-0.07 -0.07,-0.07l-0.58 0c-0.07,0 -0.07,0 -0.07,0.07l0.03 3.23 -3.12 0c-0.07,0 -0.07,0 -0.07,0.07l0.07 0.66 3.12 0 0.04 3.3 0 0z"/>
   <path class="fil0" d="M361.51 118.34c4.31,0 7.83,3.52 7.83,7.83 0,4.32 -3.52,7.84 -7.83,7.84 -4.32,0 -7.84,-3.52 -7.84,-7.84 0,-4.31 3.52,-7.83 7.84,-7.83z"/>
   <path class="fil1" d="M361.18 129.91l0.58 0c0.07,0 0.07,0 0.07,-0.07l0 -3.23 3.09 0c0.07,0 0.07,0 0.07,-0.07l0 -0.58c0,-0.08 0,-0.08 -0.07,-0.08l-3.09 0 0 -3.23c0,-0.07 0,-0.07 -0.07,-0.07l-0.58 0c-0.07,0 -0.07,0 -0.07,0.07l0.03 3.23 -3.12 0c-0.07,0 -0.07,0 -0.07,0.08l0.07 0.65 3.12 0 0.04 3.3 0 0z"/>
   <path class="fil0" d="M389.77 114.53c4.32,0 7.84,3.52 7.84,7.83 0,4.32 -3.52,7.84 -7.84,7.84 -4.32,0 -7.84,-3.52 -7.84,-7.84 0,-4.31 3.52,-7.83 7.84,-7.83z"/>
   <path class="fil1" d="M389.44 126.1l0.58 0c0.08,0 0.08,0 0.08,-0.07l0 -3.23 3.08 0c0.07,0 0.07,0 0.07,-0.07l0 -0.58c0,-0.08 0,-0.08 -0.07,-0.08l-3.08 0 0 -3.22c0,-0.08 0,-0.08 -0.08,-0.08l-0.58 0c-0.07,0 -0.07,0 -0.07,0.08l0.04 3.22 -3.12 0c-0.08,0 -0.08,0 -0.08,0.08l0.08 0.65 3.12 0 0.03 3.3 0 0z"/>
   <path class="fil0" d="M418.79 112.64c4.32,0 7.84,3.52 7.84,7.84 0,4.31 -3.52,7.83 -7.84,7.83 -4.31,0 -7.83,-3.52 -7.83,-7.83 0,-4.32 3.52,-7.84 7.83,-7.84z"/>
   <path class="fil1" d="M418.5 124.21l0.58 0c0.08,0 0.08,0 0.08,-0.07l0 -3.23 3.08 0c0.07,0 0.07,0 0.07,-0.07l0 -0.58c0,-0.07 0,-0.07 -0.07,-0.07l-3.08 0 0 -3.23c0,-0.07 0,-0.07 -0.08,-0.07l-0.58 0c-0.07,0 -0.07,0 -0.07,0.07l0.04 3.23 -3.12 0c-0.08,0 -0.08,0 -0.08,0.07l0.08 0.65 3.12 0 0.03 3.3 0 0z"/>
   <path class="fil0" d="M248.67 144.31c4.32,0 7.84,3.52 7.84,7.84 0,4.32 -3.52,7.84 -7.84,7.84 -4.31,0 -7.83,-3.52 -7.83,-7.84 0,-4.32 3.52,-7.84 7.83,-7.84z"/>
   <path class="fil1" d="M248.38 155.89l0.58 0c0.08,0 0.08,0 0.08,-0.08l0 -3.23 3.08 0c0.07,0 0.07,0 0.07,-0.07l0 -0.58c0,-0.07 0,-0.07 -0.07,-0.07l-3.08 0 0 -3.23c0,-0.07 0,-0.07 -0.08,-0.07l-0.58 0c-0.07,0 -0.07,0 -0.07,0.07l0.04 3.23 -3.12 0c-0.08,0 -0.08,0 -0.08,0.07l0.08 0.66 3.12 0 0.03 3.3 0 0z"/>
   <path class="fil0" d="M631.32 139.12c-4.31,0 -7.83,3.52 -7.83,7.84 0,4.32 3.52,7.84 7.83,7.84 4.32,0 7.84,-3.52 7.84,-7.84 0,-4.32 -3.52,-7.84 -7.84,-7.84z"/>
   <path class="fil1" d="M631.61 150.7l-0.58 0c-0.07,0 -0.07,0 -0.07,-0.07l0 -3.23 -3.08 0c-0.07,0 -0.07,0 -0.07,-0.08l0 -0.58c0,-0.07 0,-0.07 0.07,-0.07l3.08 0 0 -3.23c0,-0.07 0,-0.07 0.07,-0.07l0.58 0c0.08,0 0.08,0 0.08,0.07l-0.04 3.23 3.12 0c0.07,0 0.07,0 0.07,0.07l-0.07 0.66 -3.12 0 -0.04 3.3 0 0z"/>
   <path class="fil0" d="M603.43 131.8c-4.32,0 -7.84,3.52 -7.84,7.83 0,4.32 3.52,7.84 7.84,7.84 4.31,0 7.83,-3.52 7.83,-7.84 0,-4.31 -3.52,-7.83 -7.83,-7.83z"/>
   <path class="fil1" d="M603.75 143.37l-0.58 0c-0.07,0 -0.07,0 -0.07,-0.07l0 -3.23 -3.08 0c-0.08,0 -0.08,0 -0.08,-0.07l0 -0.58c0,-0.08 0,-0.08 0.08,-0.08l3.08 0 0 -3.23c0,-0.07 0,-0.07 0.07,-0.07l0.58 0c0.07,0 0.07,0 0.07,0.07l-0.03 3.23 3.12 0c0.07,0 0.07,0 0.07,0.08l-0.07 0.65 -3.12 0 -0.04 3.3z"/>
   <path class="fil0" d="M575.02 124.5c-4.32,0 -7.84,3.52 -7.84,7.84 0,4.32 3.52,7.84 7.84,7.84 4.32,0 7.83,-3.52 7.83,-7.84 0,-4.32 -3.51,-7.84 -7.83,-7.84z"/>
   <path class="fil1" d="M575.31 136.08l-0.58 0c-0.07,0 -0.07,0 -0.07,-0.08l0 -3.22 -3.09 0c-0.07,0 -0.07,0 -0.07,-0.08l0 -0.58c0,-0.07 0,-0.07 0.07,-0.07l3.09 0 0 -3.23c0,-0.07 0,-0.07 0.07,-0.07l0.58 0c0.07,0 0.07,0 0.07,0.07l-0.04 3.23 3.12 0c0.08,0 0.08,0 0.08,0.07l-0.08 0.66 -3.12 0 -0.03 3.3 0 0z"/>
   <path class="fil0" d="M547.01 119.17c-4.32,0 -7.84,3.52 -7.84,7.84 0,4.31 3.52,7.83 7.84,7.83 4.32,0 7.84,-3.52 7.84,-7.83 0,-4.32 -3.52,-7.84 -7.84,-7.84z"/>
   <path class="fil1" d="M547.3 130.74l-0.58 0c-0.07,0 -0.07,0 -0.07,-0.07l0 -3.23 -3.09 0c-0.07,0 -0.07,0 -0.07,-0.07l0 -0.58c0,-0.07 0,-0.07 0.07,-0.07l3.09 0 0 -3.23c0,-0.07 0,-0.07 0.07,-0.07l0.58 0c0.07,0 0.07,0 0.07,0.07l-0.03 3.23 3.12 0c0.07,0 0.07,0 0.07,0.07l-0.07 0.65 -3.12 0 -0.04 3.3 0 0z"/>
   <path class="fil0" d="M517.98 115.76c-4.31,0 -7.83,3.52 -7.83,7.84 0,4.31 3.52,7.83 7.83,7.83 4.32,0 7.84,-3.52 7.84,-7.83 0,-4.32 -3.52,-7.84 -7.84,-7.84z"/>
   <path class="fil1" d="M518.27 127.33l-0.58 0c-0.07,0 -0.07,0 -0.07,-0.07l0 -3.23 -3.08 0c-0.07,0 -0.07,0 -0.07,-0.07l0 -0.58c0,-0.07 0,-0.07 0.07,-0.07l3.08 0 0 -3.23c0,-0.08 0,-0.08 0.07,-0.08l0.58 0c0.08,0 0.08,0 0.08,0.08l-0.04 3.23 3.12 0c0.07,0 0.07,0 0.07,0.07l-0.07 0.65 -3.12 0 -0.04 3.3 0 0z"/>
   <path class="fil0" d="M485.91 113.51c-4.32,0 -7.83,3.52 -7.83,7.84 0,4.31 3.51,7.83 7.83,7.83 4.32,0 7.84,-3.52 7.84,-7.83 0,-4.32 -3.52,-7.84 -7.84,-7.84z"/>
   <path class="fil1" d="M486.2 125.05l-0.58 0c-0.07,0 -0.07,0 -0.07,-0.07l0 -3.23 -3.08 0c-0.08,0 -0.08,0 -0.08,-0.08l0 -0.58c0,-0.07 0,-0.07 0.08,-0.07l3.08 0 0 -3.23c0,-0.07 0,-0.07 0.07,-0.07l0.58 0c0.07,0 0.07,0 0.07,0.07l-0.03 3.23 3.12 0c0.07,0 0.07,0 0.07,0.07l-0.07 0.66 -3.12 0 -0.04 3.3 0 0z"/>
   <path class="fil0" d="M658.9 148.81c-4.32,0 -7.84,3.52 -7.84,7.84 0,4.32 3.52,7.84 7.84,7.84 4.32,0 7.83,-3.52 7.83,-7.84 0,-4.32 -3.51,-7.84 -7.83,-7.84z"/>
   <path class="fil1" d="M659.19 160.39l-0.58 0c-0.08,0 -0.08,0 -0.08,-0.08l0 -3.23 -3.08 0c-0.07,0 -0.07,0 -0.07,-0.07l0 -0.58c0,-0.07 0,-0.07 0.07,-0.07l3.08 0 0 -3.23c0,-0.07 0,-0.07 0.08,-0.07l0.58 0c0.07,0 0.07,0 0.07,0.07l-0.04 3.23 3.12 0c0.08,0 0.08,0 0.08,0.07l-0.08 0.65 -3.12 0 -0.03 3.31z"/>
   <path class="fil0" d="M764.04 197.14c-4.32,0 -7.84,3.52 -7.84,7.83 0,4.32 3.52,7.84 7.84,7.84 4.32,0 7.84,-3.52 7.84,-7.84 0,-4.31 -3.52,-7.83 -7.84,-7.83z"/>
   <path class="fil1" d="M764.33 208.67l-0.58 0c-0.07,0 -0.07,0 -0.07,-0.07l0 -3.23 -3.09 0c-0.07,0 -0.07,0 -0.07,-0.07l0 -0.58c0,-0.07 0,-0.07 0.07,-0.07l3.09 0 0 -3.23c0,-0.07 0,-0.07 0.07,-0.07l0.58 0c0.07,0 0.07,0 0.07,0.07l-0.04 3.23 3.13 0c0.07,0 0.07,0 0.07,0.07l-0.07 0.65 -3.13 0 -0.03 3.3z"/>
   <path class="fil0" d="M737.95 182.52c-4.32,0 -7.83,3.51 -7.83,7.83 0,4.32 3.51,7.84 7.83,7.84 4.32,0 7.84,-3.52 7.84,-7.84 0,-4.32 -3.52,-7.83 -7.84,-7.83z"/>
   <path class="fil1" d="M738.24 194.09l-0.58 0c-0.07,0 -0.07,0 -0.07,-0.07l0 -3.23 -3.08 0c-0.08,0 -0.08,0 -0.08,-0.07l0 -0.58c0,-0.08 0,-0.08 0.08,-0.08l3.08 0 0 -3.23c0,-0.07 0,-0.07 0.07,-0.07l0.58 0c0.07,0 0.07,0 0.07,0.07l-0.03 3.23 3.12 0c0.07,0 0.07,0 0.07,0.08l-0.07 0.65 -3.12 0 -0.04 3.3 0 0z"/>
   <path class="fil0" d="M631.32 189.3c-4.31,0 -7.83,3.52 -7.83,7.84 0,4.32 3.52,7.83 7.83,7.83 4.32,0 7.84,-3.51 7.84,-7.83 0,-4.32 -3.52,-7.84 -7.84,-7.84z"/>
   <path class="fil1" d="M631.61 200.87l-0.58 0c-0.07,0 -0.07,0 -0.07,-0.07l0 -3.23 -3.08 0c-0.07,0 -0.07,0 -0.07,-0.07l0 -0.58c0,-0.07 0,-0.07 0.07,-0.07l3.08 0 0 -3.23c0,-0.07 0,-0.07 0.07,-0.07l0.58 0c0.08,0 0.08,0 0.08,0.07l-0.04 3.23 3.12 0c0.07,0 0.07,0 0.07,0.07l-0.07 0.65 -3.12 0 -0.04 3.31 0 -0.01z"/>
   <path class="fil0" d="M603.43 180.78c-4.32,0 -7.84,3.51 -7.84,7.83 0,4.32 3.52,7.84 7.84,7.84 4.31,0 7.83,-3.52 7.83,-7.84 0,-4.32 -3.52,-7.83 -7.83,-7.83z"/>
   <path class="fil1" d="M603.75 192.35l-0.58 0c-0.07,0 -0.07,0 -0.07,-0.07l0 -3.23 -3.08 0c-0.08,0 -0.08,0 -0.08,-0.08l0 -0.58c0,-0.07 0,-0.07 0.08,-0.07l3.08 0 0 -3.23c0,-0.07 0,-0.07 0.07,-0.07l0.58 0c0.07,0 0.07,0 0.07,0.07l-0.03 3.23 3.12 0c0.07,0 0.07,0 0.07,0.07l-0.07 0.66 -3.12 0 -0.04 3.3z"/>
   <path class="fil0" d="M575.02 173.63c-4.32,0 -7.84,3.52 -7.84,7.83 0,4.32 3.52,7.84 7.84,7.84 4.32,0 7.83,-3.52 7.83,-7.84 0,-4.31 -3.51,-7.83 -7.83,-7.83z"/>
   <path class="fil1" d="M575.31 185.2l-0.58 0c-0.07,0 -0.07,0 -0.07,-0.07l0 -3.23 -3.09 0c-0.07,0 -0.07,0 -0.07,-0.07l0 -0.58c0,-0.08 0,-0.08 0.07,-0.08l3.09 0 0 -3.22c0,-0.08 0,-0.08 0.07,-0.08l0.58 0c0.07,0 0.07,0 0.07,0.08l-0.04 3.22 3.12 0c0.08,0 0.08,0 0.08,0.08l-0.08 0.65 -3.12 0 -0.03 3.3 0 0z"/>
   <path class="fil0" d="M547.01 167.68c-4.32,0 -7.84,3.52 -7.84,7.83 0,4.32 3.52,7.84 7.84,7.84 4.32,0 7.84,-3.52 7.84,-7.84 0,-4.31 -3.52,-7.83 -7.84,-7.83z"/>
   <path class="fil1" d="M547.3 179.25l-0.58 0c-0.07,0 -0.07,0 -0.07,-0.07l0 -3.23 -3.09 0c-0.07,0 -0.07,0 -0.07,-0.07l0 -0.58c0,-0.07 0,-0.07 0.07,-0.07l3.09 0 0 -3.23c0,-0.08 0,-0.08 0.07,-0.08l0.58 0c0.07,0 0.07,0 0.07,0.08l-0.03 3.23 3.12 0c0.07,0 0.07,0 0.07,0.07l-0.07 0.65 -3.12 0 -0.04 3.3 0 0z"/>
   <path class="fil0" d="M517.98 163.8c-4.31,0 -7.83,3.52 -7.83,7.83 0,4.32 3.52,7.84 7.83,7.84 4.32,0 7.84,-3.52 7.84,-7.84 0,-4.31 -3.52,-7.83 -7.84,-7.83z"/>
   <path class="fil1" d="M518.27 175.37l-0.58 0c-0.07,0 -0.07,0 -0.07,-0.07l0 -3.23 -3.08 0c-0.07,0 -0.07,0 -0.07,-0.08l0 -0.58c0,-0.07 0,-0.07 0.07,-0.07l3.08 0 0 -3.23c0,-0.07 0,-0.07 0.07,-0.07l0.58 0c0.08,0 0.08,0 0.08,0.07l-0.04 3.23 3.12 0c0.07,0 0.07,0 0.07,0.07l-0.07 0.66 -3.12 0 -0.04 3.3 0 0z"/>
   <path class="fil0" d="M485.91 160.49c-4.32,0 -7.83,3.52 -7.83,7.84 0,4.32 3.51,7.84 7.83,7.84 4.32,0 7.84,-3.52 7.84,-7.84 0,-4.32 -3.52,-7.84 -7.84,-7.84z"/>
   <path class="fil1" d="M486.2 172.07l-0.58 0c-0.07,0 -0.07,0 -0.07,-0.08l0 -3.22 -3.08 0c-0.08,0 -0.08,0 -0.08,-0.08l0 -0.58c0,-0.07 0,-0.07 0.08,-0.07l3.08 0 0 -3.23c0,-0.07 0,-0.07 0.07,-0.07l0.58 0c0.07,0 0.07,0 0.07,0.07l-0.03 3.23 3.12 0c0.07,0 0.07,0 0.07,0.07l-0.07 0.66 -3.12 0 -0.04 3.3 0 0z"/>
   <path class="fil0" d="M658.9 199.31c-4.32,0 -7.84,3.52 -7.84,7.84 0,4.32 3.52,7.84 7.84,7.84 4.32,0 7.83,-3.52 7.83,-7.84 0,-4.32 -3.51,-7.84 -7.83,-7.84z"/>
   <path class="fil1" d="M659.19 210.89l-0.58 0c-0.08,0 -0.08,0 -0.08,-0.07l0 -3.23 -3.08 0c-0.07,0 -0.07,0 -0.07,-0.08l0 -0.58c0,-0.07 0,-0.07 0.07,-0.07l3.08 0 0 -3.23c0,-0.07 0,-0.07 0.08,-0.07l0.58 0c0.07,0 0.07,0 0.07,0.07l-0.04 3.23 3.12 0c0.08,0 0.08,0 0.08,0.07l-0.08 0.66 -3.12 0 -0.03 3.3 0 0z"/>
   <path class="fil0" d="M276.25 185.53c4.31,0 7.83,3.52 7.83,7.83 0,4.32 -3.52,7.84 -7.83,7.84 -4.32,0 -7.84,-3.52 -7.84,-7.84 0,-4.31 3.52,-7.83 7.84,-7.83z"/>
   <path class="fil1" d="M275.96 197.06l0.58 0c0.07,0 0.07,0 0.07,-0.07l0 -3.23 3.08 0c0.07,0 0.07,0 0.07,-0.07l0 -0.58c0,-0.07 0,-0.07 -0.07,-0.07l-3.08 0 0 -3.23c0,-0.07 0,-0.07 -0.07,-0.07l-0.58 0c-0.08,0 -0.08,0 -0.08,0.07l0.04 3.23 -3.12 0c-0.07,0 -0.07,0 -0.07,0.07l0.07 0.65 3.12 0 0.04 3.3 0 0z"/>
   <path class="fil0" d="M304.11 177.33c4.32,0 7.84,3.52 7.84,7.83 0,4.32 -3.52,7.84 -7.84,7.84 -4.32,0 -7.84,-3.52 -7.84,-7.84 0,-4.31 3.52,-7.83 7.84,-7.83z"/>
   <path class="fil1" d="M303.82 188.9l0.58 0c0.07,0 0.07,0 0.07,-0.07l0 -3.23 3.09 0c0.07,0 0.07,0 0.07,-0.07l0 -0.58c0,-0.07 0,-0.07 -0.07,-0.07l-3.09 0 0 -3.23c0,-0.08 0,-0.08 -0.07,-0.08l-0.58 0c-0.07,0 -0.07,0 -0.07,0.08l0.03 3.23 -3.12 0c-0.07,0 -0.07,0 -0.07,0.07l0.07 0.65 3.12 0 0.04 3.3 0 0z"/>
   <path class="fil0" d="M334.26 170.94c4.32,0 7.84,3.52 7.84,7.84 0,4.32 -3.52,7.84 -7.84,7.84 -4.32,0 -7.84,-3.52 -7.84,-7.84 0,-4.32 3.52,-7.84 7.84,-7.84z"/>
   <path class="fil1" d="M333.97 182.52l0.58 0c0.07,0 0.07,0 0.07,-0.08l0 -3.23 3.09 0c0.07,0 0.07,0 0.07,-0.07l0 -0.58c0,-0.07 0,-0.07 -0.07,-0.07l-3.09 0 0 -3.23c0,-0.07 0,-0.07 -0.07,-0.07l-0.58 0c-0.07,0 -0.07,0 -0.07,0.07l0.03 3.23 -3.12 0c-0.07,0 -0.07,0 -0.07,0.07l0.07 0.65 3.12 0 0.04 3.31 0 0z"/>
   <path class="fil0" d="M361.51 165.97c4.31,0 7.83,3.52 7.83,7.84 0,4.32 -3.52,7.84 -7.83,7.84 -4.32,0 -7.84,-3.52 -7.84,-7.84 0,-4.32 3.52,-7.84 7.84,-7.84z"/>
   <path class="fil1" d="M361.18 177.55l0.58 0c0.07,0 0.07,0 0.07,-0.08l0 -3.23 3.09 0c0.07,0 0.07,0 0.07,-0.07l0 -0.58c0,-0.07 0,-0.07 -0.07,-0.07l-3.09 0 0 -3.23c0,-0.07 0,-0.07 -0.07,-0.07l-0.58 0c-0.07,0 -0.07,0 -0.07,0.07l0.03 3.23 -3.12 0c-0.07,0 -0.07,0 -0.07,0.07l0.07 0.65 3.12 0 0.04 3.31 0 0z"/>
   <path class="fil0" d="M389.77 162.38c4.32,0 7.84,3.52 7.84,7.84 0,4.31 -3.52,7.83 -7.84,7.83 -4.32,0 -7.84,-3.52 -7.84,-7.83 0,-4.32 3.52,-7.84 7.84,-7.84z"/>
   <path class="fil1" d="M389.44 173.95l0.58 0c0.08,0 0.08,0 0.08,-0.07l0 -3.23 3.08 0c0.07,0 0.07,0 0.07,-0.07l0 -0.58c0,-0.07 0,-0.07 -0.07,-0.07l-3.08 0 0 -3.23c0,-0.07 0,-0.07 -0.08,-0.07l-0.58 0c-0.07,0 -0.07,0 -0.07,0.07l0.04 3.23 -3.12 0c-0.08,0 -0.08,0 -0.08,0.07l0.08 0.65 3.12 0 0.03 3.3 0 0z"/>
   <path class="fil0" d="M418.79 160.46c4.32,0 7.84,3.52 7.84,7.83 0,4.32 -3.52,7.84 -7.84,7.84 -4.31,0 -7.83,-3.52 -7.83,-7.84 0,-4.31 3.52,-7.83 7.83,-7.83z"/>
   <path class="fil1" d="M418.5 172.03l0.58 0c0.08,0 0.08,0 0.08,-0.07l0 -3.23 3.08 0c0.07,0 0.07,0 0.07,-0.07l0 -0.58c0,-0.07 0,-0.07 -0.07,-0.07l-3.08 0 0 -3.23c0,-0.08 0,-0.08 -0.08,-0.08l-0.58 0c-0.07,0 -0.07,0 -0.07,0.08l0.04 3.23 -3.12 0c-0.08,0 -0.08,0 -0.08,0.07l0.08 0.65 3.12 0 0.03 3.3 0 0z"/>
   <path class="fil0" d="M248.67 194.92c4.32,0 7.84,3.52 7.84,7.84 0,4.32 -3.52,7.84 -7.84,7.84 -4.31,0 -7.83,-3.52 -7.83,-7.84 0,-4.32 3.52,-7.84 7.83,-7.84z"/>
   <path class="fil1" d="M248.38 206.5l0.58 0c0.08,0 0.08,0 0.08,-0.07l0 -3.23 3.08 0c0.07,0 0.07,0 0.07,-0.08l0 -0.58c0,-0.07 0,-0.07 -0.07,-0.07l-3.08 0 0 -3.23c0,-0.07 0,-0.07 -0.08,-0.07l-0.58 0c-0.07,0 -0.07,0 -0.07,0.07l0.04 3.23 -3.12 0c-0.08,0 -0.08,0 -0.08,0.07l0.08 0.66 3.12 0 0.03 3.3 0 0z"/>
   <path class="fil0" d="M764.04 254.71c-4.32,0 -7.84,3.52 -7.84,7.84 0,4.32 3.52,7.84 7.84,7.84 4.32,0 7.84,-3.52 7.84,-7.84 0,-4.32 -3.52,-7.84 -7.84,-7.84z"/>
   <path class="fil1" d="M764.33 266.29l-0.58 0c-0.07,0 -0.07,0 -0.07,-0.07l0 -3.23 -3.09 0c-0.07,0 -0.07,0 -0.07,-0.07l0 -0.59c0,-0.07 0,-0.07 0.07,-0.07l3.09 0 0 -3.23c0,-0.07 0,-0.07 0.07,-0.07l0.58 0c0.07,0 0.07,0 0.07,0.07l-0.04 3.23 3.13 0c0.07,0 0.07,0 0.07,0.07l-0.07 0.66 -3.13 0 -0.03 3.3 0 0z"/>
   <path class="fil0" d="M737.95 239.08c-4.32,0 -7.83,3.52 -7.83,7.83 0,4.32 3.51,7.84 7.83,7.84 4.32,0 7.84,-3.52 7.84,-7.84 0,-4.31 -3.52,-7.83 -7.84,-7.83z"/>
   <path class="fil1" d="M738.24 250.62l-0.58 0c-0.07,0 -0.07,0 -0.07,-0.08l0 -3.23 -3.08 0c-0.08,0 -0.08,0 -0.08,-0.07l0 -0.58c0,-0.07 0,-0.07 0.08,-0.07l3.08 0 0 -3.23c0,-0.07 0,-0.07 0.07,-0.07l0.58 0c0.07,0 0.07,0 0.07,0.07l-0.03 3.23 3.12 0c0.07,0 0.07,0 0.07,0.07l-0.07 0.65 -3.12 0 -0.04 3.31 0 0z"/>
   <path class="fil0" d="M94.33 282.76c4.32,0 7.84,3.52 7.84,7.84 0,4.31 -3.52,7.83 -7.84,7.83 -4.31,0 -7.83,-3.52 -7.83,-7.83 0,-4.32 3.52,-7.84 7.83,-7.84z"/>
   <path class="fil1" d="M94.04 294.3l0.59 0c0.07,0 0.07,0 0.07,-0.08l0 -3.23 3.08 0c0.07,0 0.07,0 0.07,-0.07l0 -0.58c0,-0.07 0,-0.07 -0.07,-0.07l-3.08 0 0 -3.23c0,-0.07 0,-0.07 -0.07,-0.07l-0.59 0c-0.07,0 -0.07,0 -0.07,0.07l0.04 3.23 -3.12 0c-0.07,0 -0.07,0 -0.07,0.07l0.07 0.66 3.12 0 0.04 3.3 -0.01 0z"/>
   <path class="fil0" d="M116.58 265.6c4.31,0 7.83,3.52 7.83,7.84 0,4.31 -3.52,7.83 -7.83,7.83 -4.32,0 -7.84,-3.52 -7.84,-7.83 0,-4.32 3.52,-7.84 7.84,-7.84z"/>
   <path class="fil1" d="M116.29 277.17l0.58 0c0.07,0 0.07,0 0.07,-0.07l0 -3.23 3.08 0c0.07,0 0.07,0 0.07,-0.07l0 -0.58c0,-0.07 0,-0.07 -0.07,-0.07l-3.08 0 0 -3.23c0,-0.08 0,-0.08 -0.07,-0.08l-0.58 0c-0.08,0 -0.08,0 -0.08,0.08l0.04 3.23 -3.12 0c-0.07,0 -0.07,0 -0.07,0.07l0.07 0.65 3.12 0 0.04 3.3 0 0z"/>
   <path class="fil0" d="M137.73 249.53c4.31,0 7.84,3.52 7.84,7.83 0,4.32 -3.53,7.84 -7.84,7.84 -4.32,0 -7.84,-3.52 -7.84,-7.84 0,-4.31 3.52,-7.83 7.84,-7.83z"/>
   <path class="fil1" d="M137.44 261.1l0.58 0c0.07,0 0.07,0 0.07,-0.07l0 -3.23 3.08 0c0.08,0 0.08,0 0.08,-0.07l0 -0.58c0,-0.08 0,-0.08 -0.08,-0.08l-3.08 0 0 -3.23c0,-0.07 0,-0.07 -0.07,-0.07l-0.58 0c-0.08,0 -0.08,0 -0.08,0.07l0.04 3.23 -3.12 0c-0.07,0 -0.07,0 -0.07,0.08l0.07 0.65 3.12 0 0.04 3.3 0 0z"/>
   <path class="fil0" d="M160 235.02c4.32,0 7.84,3.51 7.84,7.83 0,4.32 -3.52,7.84 -7.84,7.84 -4.31,0 -7.83,-3.52 -7.83,-7.84 0,-4.32 3.52,-7.83 7.83,-7.83z"/>
   <path class="fil1" d="M159.71 246.59l0.58 0c0.08,0 0.08,0 0.08,-0.07l0 -3.23 3.08 0c0.07,0 0.07,0 0.07,-0.08l0 -0.58c0,-0.07 0,-0.07 -0.07,-0.07l-3.08 0 0 -3.23c0,-0.07 0,-0.07 -0.08,-0.07l-0.58 0c-0.07,0 -0.07,0 -0.07,0.07l0.04 3.23 -3.12 0c-0.08,0 -0.08,0 -0.08,0.07l0.08 0.66 3.12 0 0.03 3.3 0 0z"/>
   <path class="fil0" d="M71.88 301.77c4.32,0 7.83,3.52 7.83,7.84 0,4.31 -3.51,7.83 -7.83,7.83 -4.32,0 -7.84,-3.52 -7.84,-7.83 0,-4.32 3.52,-7.84 7.84,-7.84z"/>
   <path class="fil1" d="M71.59 313.34l0.58 0c0.07,0 0.07,0 0.07,-0.07l0 -3.23 3.08 0c0.08,0 0.08,0 0.08,-0.07l0 -0.58c0,-0.07 0,-0.07 -0.08,-0.07l-3.08 0 0 -3.23c0,-0.07 0,-0.07 -0.07,-0.07l-0.58 0c-0.07,0 -0.07,0 -0.07,0.07l0.03 3.23 -3.12 0c-0.07,0 -0.07,0 -0.07,0.07l0.07 0.65 3.12 0 0.04 3.3 0 0z"/>
   <path class="fil0" d="M50.4 321.72c4.32,0 7.84,3.52 7.84,7.84 0,4.32 -3.52,7.84 -7.84,7.84 -4.32,0 -7.84,-3.52 -7.84,-7.84 0,-4.32 3.52,-7.84 7.84,-7.84z"/>
   <path class="fil1" d="M50.11 333.26l0.58 0c0.07,0 0.07,0 0.07,-0.07l0 -3.23 3.09 0c0.07,0 0.07,0 0.07,-0.07l0 -0.58c0,-0.07 0,-0.07 -0.07,-0.07l-3.09 0 0 -3.23c0,-0.07 0,-0.07 -0.07,-0.07l-0.58 0c-0.07,0 -0.07,0 -0.07,0.07l0.03 3.23 -3.12 0c-0.07,0 -0.07,0 -0.07,0.07l0.07 0.65 3.12 0 0.04 3.3 0 0z"/>
   <path class="fil0" d="M631.32 239.33c-4.31,0 -7.83,3.52 -7.83,7.84 0,4.32 3.52,7.84 7.83,7.84 4.32,0 7.84,-3.52 7.84,-7.84 0,-4.32 -3.52,-7.84 -7.84,-7.84z"/>
   <path class="fil1" d="M631.61 250.91l-0.58 0c-0.07,0 -0.07,0 -0.07,-0.08l0 -3.23 -3.08 0c-0.07,0 -0.07,0 -0.07,-0.07l0 -0.58c0,-0.07 0,-0.07 0.07,-0.07l3.08 0 0 -3.23c0,-0.07 0,-0.07 0.07,-0.07l0.58 0c0.08,0 0.08,0 0.08,0.07l-0.04 3.23 3.12 0c0.07,0 0.07,0 0.07,0.07l-0.07 0.65 -3.12 0 -0.04 3.31z"/>
   <path class="fil0" d="M603.43 229.9c-4.32,0 -7.84,3.52 -7.84,7.84 0,4.31 3.52,7.83 7.84,7.83 4.31,0 7.83,-3.52 7.83,-7.83 0,-4.32 -3.52,-7.84 -7.83,-7.84z"/>
   <path class="fil1" d="M603.75 241.47l-0.58 0c-0.07,0 -0.07,0 -0.07,-0.07l0 -3.23 -3.08 0c-0.08,0 -0.08,0 -0.08,-0.07l0 -0.58c0,-0.07 0,-0.07 0.08,-0.07l3.08 0 0 -3.23c0,-0.08 0,-0.08 0.07,-0.08l0.58 0c0.07,0 0.07,0 0.07,0.08l-0.03 3.23 3.12 0c0.07,0 0.07,0 0.07,0.07l-0.07 0.65 -3.12 0 -0.04 3.3z"/>
   <path class="fil0" d="M575.02 222.03c-4.32,0 -7.84,3.51 -7.84,7.83 0,4.32 3.52,7.84 7.84,7.84 4.32,0 7.83,-3.52 7.83,-7.84 0,-4.32 -3.51,-7.83 -7.83,-7.83z"/>
   <path class="fil1" d="M575.31 233.56l-0.58 0c-0.07,0 -0.07,0 -0.07,-0.07l0 -3.23 -3.09 0c-0.07,0 -0.07,0 -0.07,-0.07l0 -0.58c0,-0.07 0,-0.07 0.07,-0.07l3.09 0 0 -3.23c0,-0.08 0,-0.08 0.07,-0.08l0.58 0c0.07,0 0.07,0 0.07,0.08l-0.04 3.23 3.12 0c0.08,0 0.08,0 0.08,0.07l-0.08 0.65 -3.12 0 -0.03 3.3 0 0z"/>
   <path class="fil0" d="M547.01 215.93c-4.32,0 -7.84,3.52 -7.84,7.84 0,4.31 3.52,7.84 7.84,7.84 4.32,0 7.84,-3.53 7.84,-7.84 0,-4.32 -3.52,-7.84 -7.84,-7.84z"/>
   <path class="fil1" d="M547.3 227.5l-0.58 0c-0.07,0 -0.07,0 -0.07,-0.07l0 -3.23 -3.09 0c-0.07,0 -0.07,0 -0.07,-0.07l0 -0.58c0,-0.07 0,-0.07 0.07,-0.07l3.09 0 0 -3.23c0,-0.07 0,-0.07 0.07,-0.07l0.58 0c0.07,0 0.07,0 0.07,0.07l-0.03 3.23 3.12 0c0.07,0 0.07,0 0.07,0.07l-0.07 0.65 -3.12 0 -0.04 3.31 0 -0.01z"/>
   <path class="fil0" d="M517.98 210.96c-4.31,0 -7.83,3.52 -7.83,7.84 0,4.31 3.52,7.83 7.83,7.83 4.32,0 7.84,-3.52 7.84,-7.83 0,-4.32 -3.52,-7.84 -7.84,-7.84z"/>
   <path class="fil1" d="M518.27 222.53l-0.58 0c-0.07,0 -0.07,0 -0.07,-0.07l0 -3.23 -3.08 0c-0.07,0 -0.07,0 -0.07,-0.07l0 -0.58c0,-0.07 0,-0.07 0.07,-0.07l3.08 0 0 -3.23c0,-0.07 0,-0.07 0.07,-0.07l0.58 0c0.08,0 0.08,0 0.08,0.07l-0.04 3.23 3.12 0c0.07,0 0.07,0 0.07,0.07l-0.07 0.65 -3.12 0 -0.04 3.3z"/>
   <path class="fil0" d="M485.91 208.09c-4.32,0 -7.83,3.52 -7.83,7.84 0,4.32 3.51,7.84 7.83,7.84 4.32,0 7.84,-3.52 7.84,-7.84 0,-4.32 -3.52,-7.84 -7.84,-7.84z"/>
   <path class="fil1" d="M486.2 219.67l-0.58 0c-0.07,0 -0.07,0 -0.07,-0.08l0 -3.22 -3.08 0c-0.08,0 -0.08,0 -0.08,-0.08l0 -0.58c0,-0.07 0,-0.07 0.08,-0.07l3.08 0 0 -3.23c0,-0.07 0,-0.07 0.07,-0.07l0.58 0c0.07,0 0.07,0 0.07,0.07l-0.03 3.23 3.12 0c0.07,0 0.07,0 0.07,0.07l-0.07 0.66 -3.12 0 -0.04 3.3 0 0z"/>
   <path class="fil0" d="M658.9 250.29c-4.32,0 -7.84,3.52 -7.84,7.84 0,4.31 3.52,7.83 7.84,7.83 4.32,0 7.83,-3.52 7.83,-7.83 0,-4.32 -3.51,-7.84 -7.83,-7.84z"/>
   <path class="fil1" d="M659.19 261.86l-0.58 0c-0.08,0 -0.08,0 -0.08,-0.07l0 -3.23 -3.08 0c-0.07,0 -0.07,0 -0.07,-0.07l0 -0.58c0,-0.07 0,-0.07 0.07,-0.07l3.08 0 0 -3.23c0,-0.08 0,-0.08 0.08,-0.08l0.58 0c0.07,0 0.07,0 0.07,0.08l-0.04 3.23 3.12 0c0.08,0 0.08,0 0.08,0.07l-0.08 0.65 -3.12 0 -0.03 3.3z"/>
   <path class="fil0" d="M277.59 235.81c4.32,0 7.84,3.52 7.84,7.84 0,4.32 -3.52,7.84 -7.84,7.84 -4.32,0 -7.84,-3.52 -7.84,-7.84 0,-4.32 3.52,-7.84 7.84,-7.84z"/>
   <path class="fil1" d="M277.3 247.31l0.58 0c0.07,0 0.07,0 0.07,-0.07l0 -3.23 3.09 0c0.07,0 0.07,0 0.07,-0.07l0 -0.58c0,-0.07 0,-0.07 -0.07,-0.07l-3.09 0 0 -3.23c0,-0.08 0,-0.08 -0.07,-0.08l-0.58 0c-0.07,0 -0.07,0 -0.07,0.08l0.03 3.23 -3.12 0c-0.07,0 -0.07,0 -0.07,0.07l0.07 0.65 3.12 0 0.04 3.3 0 0z"/>
   <path class="fil0" d="M304.11 226.85c4.32,0 7.84,3.52 7.84,7.84 0,4.31 -3.52,7.83 -7.84,7.83 -4.32,0 -7.84,-3.52 -7.84,-7.83 0,-4.32 3.52,-7.84 7.84,-7.84z"/>
   <path class="fil1" d="M303.82 238.42l0.58 0c0.07,0 0.07,0 0.07,-0.07l0 -3.23 3.09 0c0.07,0 0.07,0 0.07,-0.07l0 -0.58c0,-0.07 0,-0.07 -0.07,-0.07l-3.09 0 0 -3.23c0,-0.07 0,-0.07 -0.07,-0.07l-0.58 0c-0.07,0 -0.07,0 -0.07,0.07l0.03 3.23 -3.12 0c-0.07,0 -0.07,0 -0.07,0.07l0.07 0.65 3.12 0 0.04 3.3z"/>
   <path class="fil0" d="M334.26 219.49c4.32,0 7.84,3.52 7.84,7.83 0,4.32 -3.52,7.84 -7.84,7.84 -4.32,0 -7.84,-3.52 -7.84,-7.84 0,-4.31 3.52,-7.83 7.84,-7.83z"/>
   <path class="fil1" d="M333.97 231.06l0.58 0c0.07,0 0.07,0 0.07,-0.07l0 -3.23 3.09 0c0.07,0 0.07,0 0.07,-0.07l0 -0.58c0,-0.08 0,-0.08 -0.07,-0.08l-3.09 0 0 -3.23c0,-0.07 0,-0.07 -0.07,-0.07l-0.58 0c-0.07,0 -0.07,0 -0.07,0.07l0.03 3.23 -3.12 0c-0.07,0 -0.07,0 -0.07,0.08l0.07 0.65 3.12 0 0.04 3.3 0 0z"/>
   <path class="fil0" d="M361.51 213.54c4.31,0 7.83,3.52 7.83,7.83 0,4.32 -3.52,7.84 -7.83,7.84 -4.32,0 -7.84,-3.52 -7.84,-7.84 0,-4.31 3.52,-7.83 7.84,-7.83z"/>
   <path class="fil1" d="M361.18 225.11l0.58 0c0.07,0 0.07,0 0.07,-0.07l0 -3.23 3.09 0c0.07,0 0.07,0 0.07,-0.07l0 -0.58c0,-0.08 0,-0.08 -0.07,-0.08l-3.09 0 0 -3.23c0,-0.07 0,-0.07 -0.07,-0.07l-0.58 0c-0.07,0 -0.07,0 -0.07,0.07l0.03 3.23 -3.12 0c-0.07,0 -0.07,0 -0.07,0.08l0.07 0.65 3.12 0 0.04 3.3z"/>
   <path class="fil0" d="M389.77 209.69c4.32,0 7.84,3.52 7.84,7.84 0,4.31 -3.52,7.83 -7.84,7.83 -4.32,0 -7.84,-3.52 -7.84,-7.83 0,-4.32 3.52,-7.84 7.84,-7.84z"/>
   <path class="fil1" d="M389.44 221.23l0.58 0c0.08,0 0.08,0 0.08,-0.07l0 -3.23 3.08 0c0.07,0 0.07,0 0.07,-0.08l0 -0.58c0,-0.07 0,-0.07 -0.07,-0.07l-3.08 0 0 -3.23c0,-0.07 0,-0.07 -0.08,-0.07l-0.58 0c-0.07,0 -0.07,0 -0.07,0.07l0.04 3.23 -3.12 0c-0.08,0 -0.08,0 -0.08,0.07l0.08 0.66 3.12 0 0.03 3.3 0 0z"/>
   <path class="fil0" d="M418.79 206.82c4.32,0 7.84,3.52 7.84,7.84 0,4.32 -3.52,7.84 -7.84,7.84 -4.31,0 -7.83,-3.52 -7.83,-7.84 0,-4.32 3.52,-7.84 7.83,-7.84z"/>
   <path class="fil1" d="M418.5 218.36l0.58 0c0.08,0 0.08,0 0.08,-0.07l0 -3.23 3.08 0c0.07,0 0.07,0 0.07,-0.07l0 -0.58c0,-0.07 0,-0.07 -0.07,-0.07l-3.08 0 0 -3.23c0,-0.08 0,-0.08 -0.08,-0.08l-0.58 0c-0.07,0 -0.07,0 -0.07,0.08l0.04 3.23 -3.12 0c-0.08,0 -0.08,0 -0.08,0.07l0.08 0.65 3.12 0 0.03 3.3 0 0z"/>
   <path class="fil0" d="M248.67 246.22c4.32,0 7.84,3.52 7.84,7.84 0,4.32 -3.52,7.84 -7.84,7.84 -4.31,0 -7.83,-3.52 -7.83,-7.84 0,-4.32 3.52,-7.84 7.83,-7.84z"/>
   <path class="fil1" d="M248.38 257.8l0.58 0c0.08,0 0.08,0 0.08,-0.07l0 -3.23 3.08 0c0.07,0 0.07,0 0.07,-0.07l0 -0.59c0,-0.07 0,-0.07 -0.07,-0.07l-3.08 0 0 -3.23c0,-0.07 0,-0.07 -0.08,-0.07l-0.58 0c-0.07,0 -0.07,0 -0.07,0.07l0.04 3.23 -3.12 0c-0.08,0 -0.08,0 -0.08,0.07l0.08 0.66 3.12 0 0.03 3.3 0 0z"/>
   <path class="fil0" d="M160 292.59c4.32,0 7.84,3.52 7.84,7.84 0,4.32 -3.52,7.84 -7.84,7.84 -4.31,0 -7.83,-3.52 -7.83,-7.84 0,-4.32 3.52,-7.84 7.83,-7.84z"/>
   <path class="fil1" d="M159.71 304.13l0.58 0c0.08,0 0.08,0 0.08,-0.07l0 -3.23 3.08 0c0.07,0 0.07,0 0.07,-0.07l0 -0.58c0,-0.08 0,-0.08 -0.07,-0.08l-3.08 0 0 -3.23c0,-0.07 0,-0.07 -0.08,-0.07l-0.58 0c-0.07,0 -0.07,0 -0.07,0.07l0.04 3.23 -3.12 0c-0.08,0 -0.08,0 -0.08,0.08l0.08 0.65 3.12 0 0.03 3.3z"/>
   <path class="fil0" d="M139.43 310.4c4.32,0 7.84,3.52 7.84,7.84 0,4.32 -3.52,7.84 -7.84,7.84 -4.32,0 -7.83,-3.52 -7.83,-7.84 0,-4.32 3.51,-7.84 7.83,-7.84z"/>
   <path class="fil1" d="M139.14 321.94l0.58 0c0.07,0 0.07,0 0.07,-0.07l0 -3.23 3.09 0c0.07,0 0.07,0 0.07,-0.07l0 -0.58c0,-0.07 0,-0.07 -0.07,-0.07l-3.09 0 0 -3.23c0,-0.07 0,-0.07 -0.07,-0.07l-0.58 0c-0.07,0 -0.07,0 -0.07,0.07l0.04 3.23 -3.12 0c-0.08,0 -0.08,0 -0.08,0.07l0.08 0.65 3.12 0 0.03 3.3 0 0z"/>
   <path class="fil0" d="M119.04 328.98c4.32,0 7.84,3.52 7.84,7.84 0,4.32 -3.52,7.83 -7.84,7.83 -4.31,0 -7.83,-3.51 -7.83,-7.83 0,-4.32 3.52,-7.84 7.83,-7.84z"/>
   <path class="fil1" d="M118.75 340.56l0.58 0c0.07,0 0.07,0 0.07,-0.08l0 -3.23 3.09 0c0.07,0 0.07,0 0.07,-0.07l0 -0.58c0,-0.07 0,-0.07 -0.07,-0.07l-3.09 0 0 -3.23c0,-0.07 0,-0.07 -0.07,-0.07l-0.58 0c-0.07,0 -0.07,0 -0.07,0.07l0.04 3.23 -3.12 0c-0.08,0 -0.08,0 -0.08,0.07l0.08 0.65 3.12 0 0.03 3.31 0 0z"/>
   <path class="fil0" d="M42.56 378.5c4.32,0 7.84,3.52 7.84,7.84 0,4.32 -3.52,7.84 -7.84,7.84 -4.31,0 -7.83,-3.52 -7.83,-7.84 0,-4.32 3.52,-7.84 7.83,-7.84z"/>
   <path class="fil1" d="M42.27 390.08l0.58 0c0.08,0 0.08,0 0.08,-0.08l0 -3.22 3.08 0c0.07,0 0.07,0 0.07,-0.08l0 -0.58c0,-0.07 0,-0.07 -0.07,-0.07l-3.08 0 0 -3.23c0,-0.07 0,-0.07 -0.08,-0.07l-0.58 0c-0.07,0 -0.07,0 -0.07,0.07l0.04 3.23 -3.12 0c-0.08,0 -0.08,0 -0.08,0.07l0.08 0.66 3.12 0 0.03 3.3 0 0z"/>
   <path class="fil0" d="M42.56 406.29c4.32,0 7.84,3.52 7.84,7.84 0,4.32 -3.52,7.84 -7.84,7.84 -4.31,0 -7.83,-3.52 -7.83,-7.84 0,-4.32 3.52,-7.84 7.83,-7.84z"/>
   <path class="fil1" d="M42.27 417.87l0.58 0c0.08,0 0.08,0 0.08,-0.07l0 -3.23 3.08 0c0.07,0 0.07,0 0.07,-0.08l0 -0.58c0,-0.07 0,-0.07 -0.07,-0.07l-3.08 0 0 -3.23c0,-0.07 0,-0.07 -0.08,-0.07l-0.58 0c-0.07,0 -0.07,0 -0.07,0.07l0.04 3.23 -3.12 0c-0.08,0 -0.08,0 -0.08,0.07l0.08 0.66 3.12 0 0.03 3.3 0 0z"/>
   <path class="fil0" d="M83.96 171.41c4.32,0 7.84,3.52 7.84,7.84 0,4.32 -3.52,7.84 -7.84,7.84 -4.32,0 -7.84,-3.52 -7.84,-7.84 0,-4.32 3.52,-7.84 7.84,-7.84z"/>
   <path class="fil1" d="M83.67 182.99l0.58 0c0.07,0 0.07,0 0.07,-0.07l0 -3.23 3.09 0c0.07,0 0.07,0 0.07,-0.08l0 -0.58c0,-0.07 0,-0.07 -0.07,-0.07l-3.09 0 0 -3.23c0,-0.07 0,-0.07 -0.07,-0.07l-0.58 0c-0.07,0 -0.07,0 -0.07,0.07l0.03 3.23 -3.12 0c-0.07,0 -0.07,0 -0.07,0.07l0.07 0.66 3.12 0 0.04 3.3 0 0z"/>
   <path class="fil0" d="M108.09 157.23c4.31,0 7.83,3.52 7.83,7.84 0,4.31 -3.52,7.83 -7.83,7.83 -4.32,0 -7.84,-3.52 -7.84,-7.83 0,-4.32 3.52,-7.84 7.84,-7.84z"/>
   <path class="fil1" d="M107.76 168.8l0.58 0c0.07,0 0.07,0 0.07,-0.07l0 -3.23 3.09 0c0.07,0 0.07,0 0.07,-0.07l0 -0.58c0,-0.07 0,-0.07 -0.07,-0.07l-3.09 0 0 -3.23c0,-0.08 0,-0.08 -0.07,-0.08l-0.58 0c-0.07,0 -0.07,0 -0.07,0.08l0.03 3.23 -3.12 0c-0.07,0 -0.07,0 -0.07,0.07l0.07 0.65 3.12 0 0.04 3.3 0 0z"/>
   <path class="fil0" d="M133.95 143.7c4.32,0 7.84,3.52 7.84,7.83 0,4.32 -3.52,7.84 -7.84,7.84 -4.31,0 -7.83,-3.52 -7.83,-7.84 0,-4.31 3.52,-7.83 7.83,-7.83z"/>
   <path class="fil1" d="M133.66 155.27l0.58 0c0.08,0 0.08,0 0.08,-0.07l0 -3.23 3.08 0c0.07,0 0.07,0 0.07,-0.07l0 -0.59c0,-0.07 0,-0.07 -0.07,-0.07l-3.08 0 0 -3.23c0,-0.07 0,-0.07 -0.08,-0.07l-0.58 0c-0.07,0 -0.07,0 -0.07,0.07l0.04 3.23 -3.12 0c-0.07,0 -0.07,0 -0.07,0.07l0.07 0.66 3.12 0 0.03 3.3 0 0z"/>
   <path class="fil0" d="M160 131.65c4.32,0 7.84,3.52 7.84,7.84 0,4.31 -3.52,7.83 -7.84,7.83 -4.31,0 -7.83,-3.52 -7.83,-7.83 0,-4.32 3.52,-7.84 7.83,-7.84z"/>
   <path class="fil1" d="M159.71 143.22l0.58 0c0.08,0 0.08,0 0.08,-0.07l0 -3.23 3.08 0c0.07,0 0.07,0 0.07,-0.07l0 -0.58c0,-0.07 0,-0.07 -0.07,-0.07l-3.08 0 0 -3.23c0,-0.07 0,-0.07 -0.08,-0.07l-0.58 0c-0.07,0 -0.07,0 -0.07,0.07l0.04 3.23 -3.12 0c-0.08,0 -0.08,0 -0.08,0.07l0.08 0.65 3.12 0 0.03 3.3z"/>
   <path class="fil0" d="M59.87 187.09c4.32,0 7.83,3.52 7.83,7.83 0,4.32 -3.51,7.84 -7.83,7.84 -4.32,0 -7.84,-3.52 -7.84,-7.84 0,-4.31 3.52,-7.83 7.84,-7.83z"/>
   <path class="fil1" d="M59.58 198.66l0.58 0c0.07,0 0.07,0 0.07,-0.07l0 -3.23 3.09 0c0.07,0 0.07,0 0.07,-0.07l0 -0.58c0,-0.07 0,-0.07 -0.07,-0.07l-3.09 0 0 -3.23c0,-0.08 0,-0.08 -0.07,-0.08l-0.58 0c-0.07,0 -0.07,0 -0.07,0.08l0.03 3.23 -3.12 0c-0.07,0 -0.07,0 -0.07,0.07l0.07 0.65 3.12 0 0.04 3.3 0 0z"/>
   <path class="fil0" d="M35.96 203.99c4.32,0 7.84,3.52 7.84,7.84 0,4.32 -3.52,7.84 -7.84,7.84 -4.32,0 -7.84,-3.52 -7.84,-7.84 0,-4.32 3.52,-7.84 7.84,-7.84z"/>
   <path class="fil1" d="M35.67 215.57l0.58 0c0.07,0 0.07,0 0.07,-0.07l0 -3.23 3.09 0c0.07,0 0.07,0 0.07,-0.08l0 -0.58c0,-0.07 0,-0.07 -0.07,-0.07l-3.09 0 0 -3.23c0,-0.07 0,-0.07 -0.07,-0.07l-0.58 0c-0.07,0 -0.07,0 -0.07,0.07l0.03 3.23 -3.12 0c-0.07,0 -0.07,0 -0.07,0.07l0.07 0.66 3.12 0 0.04 3.3 0 0z"/>
   <path class="fil0" d="M87.91 229.54c4.32,0 7.84,3.52 7.84,7.83 0,4.32 -3.52,7.84 -7.84,7.84 -4.31,0 -7.83,-3.52 -7.83,-7.84 0,-4.31 3.52,-7.83 7.83,-7.83z"/>
   <path class="fil1" d="M87.62 241.11l0.58 0c0.08,0 0.08,0 0.08,-0.07l0 -3.23 3.08 0c0.07,0 0.07,0 0.07,-0.07l0 -0.58c0,-0.08 0,-0.08 -0.07,-0.08l-3.08 0 0 -3.23c0,-0.07 0,-0.07 -0.08,-0.07l-0.58 0c-0.07,0 -0.07,0 -0.07,0.07l0.04 3.23 -3.12 0c-0.07,0 -0.07,0 -0.07,0.08l0.07 0.65 3.12 0 0.03 3.3 0 0z"/>
   <path class="fil0" d="M111.75 214.04c4.32,0 7.84,3.52 7.84,7.84 0,4.32 -3.52,7.84 -7.84,7.84 -4.32,0 -7.84,-3.52 -7.84,-7.84 0,-4.32 3.52,-7.84 7.84,-7.84z"/>
   <path class="fil1" d="M111.46 225.58l0.58 0c0.07,0 0.07,0 0.07,-0.07l0 -3.23 3.09 0c0.07,0 0.07,0 0.07,-0.07l0 -0.58c0,-0.07 0,-0.07 -0.07,-0.07l-3.09 0 0 -3.23c0,-0.08 0,-0.08 -0.07,-0.08l-0.58 0c-0.07,0 -0.07,0 -0.07,0.08l0.03 3.23 -3.12 0c-0.07,0 -0.07,0 -0.07,0.07l0.07 0.65 3.12 0 0.04 3.3 0 0z"/>
   <path class="fil0" d="M136.6 198.81c4.32,0 7.84,3.52 7.84,7.83 0,4.32 -3.52,7.84 -7.84,7.84 -4.31,0 -7.83,-3.52 -7.83,-7.84 0,-4.31 3.52,-7.83 7.83,-7.83z"/>
   <path class="fil1" d="M136.31 210.38l0.58 0c0.08,0 0.08,0 0.08,-0.07l0 -3.23 3.08 0c0.07,0 0.07,0 0.07,-0.07l0 -0.58c0,-0.08 0,-0.08 -0.07,-0.08l-3.08 0 0 -3.23c0,-0.07 0,-0.07 -0.08,-0.07l-0.58 0c-0.07,0 -0.07,0 -0.07,0.07l0.04 3.23 -3.12 0c-0.08,0 -0.08,0 -0.08,0.08l0.08 0.65 3.12 0 0.03 3.3z"/>
   <path class="fil0" d="M160 185.06c4.32,0 7.84,3.52 7.84,7.83 0,4.32 -3.52,7.84 -7.84,7.84 -4.31,0 -7.83,-3.52 -7.83,-7.84 0,-4.31 3.52,-7.83 7.83,-7.83z"/>
   <path class="fil1" d="M159.71 196.59l0.58 0c0.08,0 0.08,0 0.08,-0.07l0 -3.23 3.08 0c0.07,0 0.07,0 0.07,-0.07l0 -0.58c0,-0.07 0,-0.07 -0.07,-0.07l-3.08 0 0 -3.23c0,-0.08 0,-0.08 -0.08,-0.08l-0.58 0c-0.07,0 -0.07,0 -0.07,0.08l0.04 3.23 -3.12 0c-0.08,0 -0.08,0 -0.08,0.07l0.08 0.65 3.12 0 0.03 3.3 0 0z"/>
   <path class="fil0" d="M64.84 246.44c4.32,0 7.84,3.52 7.84,7.84 0,4.32 -3.52,7.84 -7.84,7.84 -4.32,0 -7.84,-3.52 -7.84,-7.84 0,-4.32 3.52,-7.84 7.84,-7.84z"/>
   <path class="fil1" d="M64.55 258.02l0.58 0c0.07,0 0.07,0 0.07,-0.08l0 -3.23 3.09 0c0.07,0 0.07,0 0.07,-0.07l0 -0.58c0,-0.07 0,-0.07 -0.07,-0.07l-3.09 0 0 -3.23c0,-0.07 0,-0.07 -0.07,-0.07l-0.58 0c-0.07,0 -0.07,0 -0.07,0.07l0.03 3.23 -3.12 0c-0.07,0 -0.07,0 -0.07,0.07l0.07 0.65 3.12 0 0.04 3.31 0 0z"/>
   <path class="fil0" d="M42.56 264.37c4.32,0 7.84,3.52 7.84,7.83 0,4.32 -3.52,7.84 -7.84,7.84 -4.31,0 -7.83,-3.52 -7.83,-7.84 0,-4.31 3.52,-7.83 7.83,-7.83z"/>
   <path class="fil1" d="M42.27 275.94l0.58 0c0.08,0 0.08,0 0.08,-0.07l0 -3.23 3.08 0c0.07,0 0.07,0 0.07,-0.07l0 -0.59c0,-0.07 0,-0.07 -0.07,-0.07l-3.08 0 0 -3.23c0,-0.07 0,-0.07 -0.08,-0.07l-0.58 0c-0.07,0 -0.07,0 -0.07,0.07l0.04 3.23 -3.12 0c-0.08,0 -0.08,0 -0.08,0.07l0.08 0.66 3.12 0 0.03 3.3 0 0z"/>
  </g>
 </g>
</svg>